<svg xmlns="http://www.w3.org/2000/svg" width="53.111" height="42.746" viewBox="0 0 53.111 42.746">
  <g id="Group_1405" data-name="Group 1405" transform="translate(-740 -470.382)">
    <path id="buy-button" d="M3.837,36.215a.718.718,0,0,1,0,1.016l-.889.889A.719.719,0,0,1,1.932,37.1l.889-.889a.719.719,0,0,1,1.016,0ZM24.744,31.5H-4.97a3.6,3.6,0,0,1-3.593-3.593V14.416A3.6,3.6,0,0,1-4.97,10.824h39.1a3.6,3.6,0,0,1,3.593,3.593V23.7a.719.719,0,0,0,1.437,0v-9.28a5.035,5.035,0,0,0-5.03-5.03H-4.97A5.035,5.035,0,0,0-10,14.416V27.907a5.035,5.035,0,0,0,5.03,5.03H24.744a.719.719,0,0,0,0-1.437ZM2.821,6.108A.719.719,0,0,0,3.837,5.092L2.948,4.2A.719.719,0,0,0,1.932,5.219ZM19.58,4.728A.719.719,0,0,0,20.3,4.01V2.753a.719.719,0,0,0-1.437,0V4.01A.719.719,0,0,0,19.58,4.728Zm6.759,1.379.889-.889A.719.719,0,0,0,26.211,4.2l-.889.889a.719.719,0,0,0,1.016,1.016ZM19.58,37.595a.719.719,0,0,0-.719.719v1.257a.719.719,0,1,0,1.437,0V38.313A.718.718,0,0,0,19.58,37.595Zm23.275,2.283L38.038,35.83l2-2a.719.719,0,0,0-.3-1.2L28.5,29.272a.719.719,0,0,0-.894.894L30.967,41.4a.719.719,0,0,0,1.2.3l2.552-2.552A.719.719,0,0,0,33.7,38.136l-1.7,1.7-2.636-8.806,8.806,2.636-1.7,1.7a.719.719,0,0,0,.046,1.058l4.817,4.048L38.805,43l-1.4-1.66a.719.719,0,1,0-1.1.924l1.9,2.26a.719.719,0,0,0,1.058.046L42.9,40.936a.719.719,0,0,0-.046-1.058Zm-4.414-13.6a.719.719,0,0,0-.719.719v.911a.719.719,0,0,0,1.437,0V27A.718.718,0,0,0,38.441,26.278Z" transform="translate(750 468.348)"/>
    <path id="Path_4434" data-name="Path 4434" d="M6.827-.181a.737.737,0,0,1,.055.263A.62.62,0,0,1,6.7.547a.6.6,0,0,1-.427.181A.575.575,0,0,1,5.912.608.783.783,0,0,1,5.666.279L5.1-1.047H1.831L1.261.29a.674.674,0,0,1-.236.323A.576.576,0,0,1,.681.728.574.574,0,0,1,.248.575.575.575,0,0,1,.1.158.725.725,0,0,1,.133-.05L2.861-6.6a.727.727,0,0,1,.263-.34.574.574,0,0,1,.394-.1.642.642,0,0,1,.367.115.649.649,0,0,1,.247.323ZM2.368-2.307H4.559L3.453-4.87ZM10.979-7a1.892,1.892,0,0,1,1.063.334,2.473,2.473,0,0,1,.811.9,2.539,2.539,0,0,1,.307,1.233A2.548,2.548,0,0,1,12.853-3.3a2.461,2.461,0,0,1-.811.9,1.892,1.892,0,0,1-1.063.334H9.073V.005A.675.675,0,0,1,8.9.487a.6.6,0,0,1-.46.186A.581.581,0,0,1,7.988.482.68.68,0,0,1,7.813.005V-6.328A.647.647,0,0,1,8-6.8.647.647,0,0,1,8.481-7Zm0,3.681a.628.628,0,0,0,.411-.175,1.292,1.292,0,0,0,.329-.455,1.41,1.41,0,0,0,.126-.586,1.41,1.41,0,0,0-.126-.586,1.238,1.238,0,0,0-.329-.449.639.639,0,0,0-.411-.17H9.073v2.421ZM17.586-7a1.892,1.892,0,0,1,1.063.334,2.473,2.473,0,0,1,.811.9,2.539,2.539,0,0,1,.307,1.233A2.548,2.548,0,0,1,19.459-3.3a2.461,2.461,0,0,1-.811.9,1.892,1.892,0,0,1-1.063.334H15.68V.005A.675.675,0,0,1,15.5.487a.6.6,0,0,1-.46.186.581.581,0,0,1-.449-.192A.68.68,0,0,1,14.42.005V-6.328a.647.647,0,0,1,.192-.477A.647.647,0,0,1,15.088-7Zm0,3.681A.628.628,0,0,0,18-3.49a1.292,1.292,0,0,0,.329-.455,1.41,1.41,0,0,0,.126-.586,1.41,1.41,0,0,0-.126-.586A1.238,1.238,0,0,0,18-5.566a.639.639,0,0,0-.411-.17H15.68v2.421ZM25.255-.608a.668.668,0,0,1,.477.181.611.611,0,0,1,.192.466.6.6,0,0,1-.192.455.668.668,0,0,1-.477.181H21.694a.647.647,0,0,1-.477-.192.647.647,0,0,1-.192-.477V-6.328a.638.638,0,0,1,.2-.477.693.693,0,0,1,.5-.192A.652.652,0,0,1,22.2-6.8a.638.638,0,0,1,.2.477V-.608ZM32.07-6.349a.732.732,0,0,1-.121.405l-2.29,3.276V.005a.657.657,0,0,1-.186.477.6.6,0,0,1-.449.192.634.634,0,0,1-.466-.192.647.647,0,0,1-.192-.477V-2.822L26.088-5.845a.862.862,0,0,1-.2-.515.6.6,0,0,1,.225-.477.724.724,0,0,1,.477-.192.663.663,0,0,1,.537.307L29.057-4.06,30.865-6.7a.662.662,0,0,1,.548-.329.631.631,0,0,1,.46.2A.656.656,0,0,1,32.07-6.349Z" transform="translate(749 493)" fill="#97144d"/>
  </g>
</svg>
