<svg id="Banking_Ombudsman" data-name="Banking Ombudsman" xmlns="http://www.w3.org/2000/svg" width="71.285" height="70.925" viewBox="0 0 71.285 70.925">
  <path id="Path_8173" data-name="Path 8173" d="M65.747,50.293a1.668,1.668,0,0,0,1.668-1.664V45.738H69.6a1.685,1.685,0,0,0,1.683-1.684v-3.82A1.686,1.686,0,0,0,69.6,38.551H66.594V27.073a3.726,3.726,0,0,0,.9.112,3.818,3.818,0,0,0,.992-.132,3.784,3.784,0,0,0,.908-6.927L37.672,1.812a4.242,4.242,0,0,0-4.054,0L1.891,20.126A3.784,3.784,0,0,0,4.7,27.073V38.551H1.688A1.685,1.685,0,0,0,0,40.234v3.82a1.686,1.686,0,0,0,1.684,1.684H3.876v2.891a1.666,1.666,0,0,0,1.664,1.664H6.8V60.478H5.539a1.668,1.668,0,0,0-1.664,1.668v2.887H1.688A1.685,1.685,0,0,0,0,66.716v3.82A1.686,1.686,0,0,0,1.688,72.22H33.465a1.044,1.044,0,1,0,0-2.088H2.092V67.121H69.2v3.011H38.283a1.044,1.044,0,1,0,0,2.088H69.6a1.685,1.685,0,0,0,1.683-1.684v-3.82A1.686,1.686,0,0,0,69.6,65.032H67.415V62.146a1.67,1.67,0,0,0-1.668-1.668H64.49V50.292h1.257ZM4.631,24.87a1.7,1.7,0,0,1-2.315-.62h0a1.7,1.7,0,0,1,.621-2.314L34.665,3.617a2.007,2.007,0,0,1,.979-.233,1.981,1.981,0,0,1,.982.235L68.351,21.935A1.694,1.694,0,0,1,66.66,24.87L36.165,7.264a1.044,1.044,0,0,0-1.044,0ZM2.092,40.639H33.465a1.044,1.044,0,1,0,0-2.088H6.785V26.037L35.643,9.374,64.505,26.037V38.551H38.11a1.044,1.044,0,1,0,0,2.088H69.2V43.65H2.092ZM29.169,48.2V45.738H42.117V48.2Zm10.023,2.088V60.478h-7.1V50.293ZM5.964,48.2V45.738H18.908V48.2Zm10.023,2.088V60.478h-7.1V50.293Zm2.92,14.74H5.964V62.567H18.908Zm8.173-2.887v2.887H21V62.146a1.668,1.668,0,0,0-1.664-1.668H18.076V50.293h1.257A1.666,1.666,0,0,0,21,48.629V45.738h6.085v2.891a1.668,1.668,0,0,0,1.668,1.664h1.257V60.478H28.748A1.67,1.67,0,0,0,27.081,62.146Zm15.036,2.887H29.169V62.567H42.117Zm8.173-2.887v2.887H44.205V62.146a1.67,1.67,0,0,0-1.668-1.668H41.281V50.293h1.257a1.668,1.668,0,0,0,1.668-1.664V45.738H50.29v2.891a1.668,1.668,0,0,0,1.668,1.664h1.257V60.478H51.958A1.67,1.67,0,0,0,50.29,62.146Zm15.036.421v2.466H52.379V62.567ZM55.3,60.478V50.293h7.1V60.478ZM52.379,48.2V45.738H65.326V48.2Z" transform="translate(-0.001 -1.295)"/>
  <path id="Path_8174" data-name="Path 8174" d="M234.369,91.882a4.387,4.387,0,1,0-4.387,4.387A4.392,4.392,0,0,0,234.369,91.882Zm-6.685,0a2.3,2.3,0,1,1,2.3,2.3A2.3,2.3,0,0,1,227.683,91.882Z" transform="translate(-194.186 -75.493)"/>
  <g id="Group_11743" data-name="Group 11743" transform="translate(17.191 23.83)">
    <path id="Path_8175" data-name="Path 8175" d="M129.331,177.644a2.9,2.9,0,0,0-2.455-4.466H124.52a1.044,1.044,0,0,0-1.044,1.044v8.109a1.044,1.044,0,0,0,1.044,1.044h0s2.165-.01,2.762-.01a3.226,3.226,0,0,0,2.044-5.722Zm-2.455-2.377a.822.822,0,1,1,0,1.643l-1.311,0v-1.646h1.311Zm.411,6.011-1.723.005V179l1.723,0a1.139,1.139,0,0,1,0,2.277Z" transform="translate(-123.476 -173.077)" fill="#97144d"/>
    <path id="Path_8176" data-name="Path 8176" d="M192.646,173.968l-.011-.028a1.224,1.224,0,0,0-1.136-.761h0a1.224,1.224,0,0,0-1.136.763l-.009.024-3.045,7.995a1.044,1.044,0,0,0,1.952.743l.5-1.319h3.451l.5,1.316a1.044,1.044,0,1,0,1.954-.737Zm-2.088,5.329.938-2.463.929,2.463Z" transform="translate(-178.362 -173.077)" fill="#97144d"/>
    <path id="Path_8177" data-name="Path 8177" d="M270.48,173.179h-.01a1.044,1.044,0,0,0-1.034,1.054l.047,4.842-3.75-5.43a1.044,1.044,0,0,0-1.9.593v8.094a1.044,1.044,0,1,0,2.088,0v-4.744l3.57,5.169a1.15,1.15,0,0,0,1.3.478,1.192,1.192,0,0,0,.813-1.186l-.076-7.836A1.044,1.044,0,0,0,270.48,173.179Z" transform="translate(-244.288 -173.077)" fill="#97144d"/>
    <path id="Path_8178" data-name="Path 8178" d="M347.905,180.953l-3.647-3.519,3.338-3.068a1.044,1.044,0,1,0-1.413-1.538l-2.666,2.45v-1.785a1.044,1.044,0,1,0-2.088,0V181.7a1.044,1.044,0,0,0,2.088,0v-2.084l2.939,2.836a1.044,1.044,0,1,0,1.45-1.5Z" transform="translate(-311.083 -172.45)" fill="#97144d"/>
  </g>
</svg>
