<svg xmlns="http://www.w3.org/2000/svg" width="50.671" height="41.15" viewBox="0 0 50.671 41.15">
  <g id="block" transform="translate(0.15 -0.195)">
    <path id="Path_4424" data-name="Path 4424" d="M69.721.2H31.785A4.861,4.861,0,0,0,26.93,5.051v17.42H28.21V13.127H73.295v14.4a3.579,3.579,0,0,1-3.575,3.575H45.756v1.281H69.721a4.861,4.861,0,0,0,4.856-4.856V5.051A4.861,4.861,0,0,0,69.721.2ZM28.211,11.846V7.858H73.295v3.988ZM73.295,6.577H28.211V5.051a3.578,3.578,0,0,1,3.575-3.575H69.721A3.579,3.579,0,0,1,73.3,5.051Zm0,0" transform="translate(-24.056)" fill="#454545"/>
    <path id="Path_4425" data-name="Path 4425" d="M300.417,174.327a4.92,4.92,0,1,0,0-8.679,4.92,4.92,0,1,0,0,8.679Zm5.958-4.34a3.636,3.636,0,0,1-4.776,3.456,4.915,4.915,0,0,0,0-6.911,3.635,3.635,0,0,1,4.776,3.455Zm-11.916,0a3.639,3.639,0,1,1,3.639,3.639A3.639,3.639,0,0,1,294.459,169.987Zm0,0" transform="translate(-261.891 -147.277)" fill="#454545"/>
    <path id="Path_4426" data-name="Path 4426" d="M11.312,172.379a11.312,11.312,0,1,0,11.312,11.312A11.312,11.312,0,0,0,11.312,172.379ZM1.281,183.691a9.987,9.987,0,0,1,2.5-6.622L17.935,191.22a10.026,10.026,0,0,1-16.654-7.528Zm17.56,6.622L4.689,176.163a10.026,10.026,0,0,1,14.151,14.151Zm0,0" transform="translate(0 -153.808)" fill="#97144d" stroke="#e3266d" stroke-width="0.3"/>
  </g>
</svg>
