<svg xmlns="http://www.w3.org/2000/svg" width="38.987" height="38.987" viewBox="0 0 38.987 38.987">
  <g id="branch_related" transform="translate(-2 -2)">
    <path id="Path_5212" data-name="Path 5212" d="M40.408,18.542H2.75a.557.557,0,0,1-.557-.557V13.922a.557.557,0,0,1,.269-.477L21.287,2.08a.557.557,0,0,1,.575,0L40.7,13.446a.557.557,0,0,1,.269.477v4.062A.557.557,0,0,1,40.408,18.542Zm-37.1-1.114H39.851V14.236L21.576,3.208,3.307,14.235Z" transform="translate(-0.086)"/>
    <path id="Path_5213" data-name="Path 5213" d="M34.35,19.013a3.331,3.331,0,1,1,3.331-3.331A3.331,3.331,0,0,1,34.35,19.013Zm0-5.549a2.217,2.217,0,1,0,2.217,2.217A2.217,2.217,0,0,0,34.35,13.464Z" transform="translate(-12.857 -4.586)" fill="#97144d"/>
    <path id="Path_5214" data-name="Path 5214" d="M59.3,34.332H53.374a1.2,1.2,0,0,1-1.2-1.2V30.257a.557.557,0,0,1,.557-.557h7.219a.557.557,0,0,1,.557.557V33.13A1.2,1.2,0,0,1,59.3,34.332Zm-6.015-3.52v2.316a.09.09,0,0,0,.089.09H59.3a.09.09,0,0,0,.089-.09V30.814Z" transform="translate(-22.228 -12.272)"/>
    <path id="Path_5215" data-name="Path 5215" d="M59.711,48.38H54.795a.557.557,0,0,1-.557-.557V36.573a.557.557,0,0,1,.557-.557h4.916a.557.557,0,0,1,.557.557V47.823A.557.557,0,0,1,59.711,48.38Zm-4.359-1.114h3.8V37.13h-3.8Z" transform="translate(-23.144 -15.07)"/>
    <path id="Path_5216" data-name="Path 5216" d="M59.947,60.85H52.728a.557.557,0,0,1-.557-.557V57.42a1.2,1.2,0,0,1,1.2-1.2H59.3a1.2,1.2,0,0,1,1.2,1.2v2.873a.557.557,0,0,1-.557.557Zm-6.662-1.114h6.1V57.42a.09.09,0,0,0-.089-.09H53.374a.09.09,0,0,0-.089.09Z" transform="translate(-22.228 -24.02)"/>
    <path id="Path_5217" data-name="Path 5217" d="M36.649,34.332H30.723a1.2,1.2,0,0,1-1.2-1.2V30.257a.557.557,0,0,1,.557-.557H37.3a.557.557,0,0,1,.557.557V33.13A1.2,1.2,0,0,1,36.649,34.332Zm-6.015-3.518V33.13a.09.09,0,0,0,.089.09h5.926a.09.09,0,0,0,.089-.09V30.814Z" transform="translate(-12.193 -12.272)"/>
    <path id="Path_5218" data-name="Path 5218" d="M37.058,48.38h-4.9a.557.557,0,0,1-.557-.557V36.573a.557.557,0,0,1,.557-.557h4.9a.557.557,0,0,1,.557.557V47.823A.557.557,0,0,1,37.058,48.38Zm-4.344-1.114H36.5V37.13H32.714Z" transform="translate(-13.114 -15.07)"/>
    <path id="Path_5219" data-name="Path 5219" d="M37.3,60.85H30.077a.557.557,0,0,1-.557-.557V57.42a1.2,1.2,0,0,1,1.2-1.2h5.926a1.2,1.2,0,0,1,1.2,1.2v2.873A.557.557,0,0,1,37.3,60.85Zm-6.662-1.114h6.1V57.42a.09.09,0,0,0-.089-.09H30.723a.09.09,0,0,0-.089.09Z" transform="translate(-12.193 -24.02)"/>
    <path id="Path_5220" data-name="Path 5220" d="M15,34.332H9.071a1.2,1.2,0,0,1-1.2-1.2V30.257a.557.557,0,0,1,.557-.557h7.219a.557.557,0,0,1,.557.557V33.13a1.2,1.2,0,0,1-1.2,1.2ZM8.982,30.814V33.13a.09.09,0,0,0,.089.09H15a.09.09,0,0,0,.089-.09V30.814Z" transform="translate(-2.6 -12.272)"/>
    <path id="Path_5221" data-name="Path 5221" d="M15.414,48.38H10.457a.557.557,0,0,1-.557-.557V36.573a.557.557,0,0,1,.557-.557h4.957a.557.557,0,0,1,.557.557V47.823A.557.557,0,0,1,15.414,48.38Zm-4.4-1.114h3.843V37.13H11.014Z" transform="translate(-3.5 -15.07)"/>
    <path id="Path_5222" data-name="Path 5222" d="M15.644,60.85H8.425a.557.557,0,0,1-.557-.557V57.42a1.2,1.2,0,0,1,1.2-1.2H15a1.2,1.2,0,0,1,1.2,1.2v2.873A.557.557,0,0,1,15.644,60.85ZM8.982,59.736h6.1V57.42A.09.09,0,0,0,15,57.33H9.071a.09.09,0,0,0-.089.09Z" transform="translate(-2.6 -24.02)"/>
    <path id="Path_5223" data-name="Path 5223" d="M40.43,67.807H2.557A.557.557,0,0,1,2,67.25V63.093a.557.557,0,0,1,.557-.557H40.43a.557.557,0,0,1,.557.557V67.25A.557.557,0,0,1,40.43,67.807ZM3.114,66.693H39.873V63.65H3.114Z" transform="translate(0 -26.82)"/>
  </g>
</svg>
