<svg xmlns="http://www.w3.org/2000/svg" width="43.641" height="35.157" viewBox="0 0 43.641 35.157">
  <g id="international-business" transform="translate(0 -39.861)">
    <g id="Group_1347" data-name="Group 1347" transform="translate(0 39.861)">
      <path id="Path_5204" data-name="Path 5204" d="M10.67,59.1V56.656a1.418,1.418,0,0,0-1.416-1.416H6.369a1.418,1.418,0,0,0-1.416,1.416V59.1H4.258a3.047,3.047,0,0,1-3.043-3.043V51.512a3.047,3.047,0,0,1,3.043-3.043H33.073a3.047,3.047,0,0,1,3.043,3.043v2.75a.608.608,0,0,0,1.215,0v-2.75a4.263,4.263,0,0,0-4.258-4.258H26.767V44.618a4.763,4.763,0,0,0-4.757-4.757H15.321a4.763,4.763,0,0,0-4.757,4.757v2.635H4.258A4.263,4.263,0,0,0,0,51.512V69.529a4.263,4.263,0,0,0,4.258,4.258H23.676a.608.608,0,1,0,0-1.215H4.258a3.047,3.047,0,0,1-3.043-3.043v-10.5a4.245,4.245,0,0,0,3.043,1.284h.694v.618a2.859,2.859,0,0,0,5.718,0v-.618c2.542.314,12.438,0,12.438,0V59.1ZM23.108,47.254H14.223V44.618a1.1,1.1,0,0,1,1.1-1.1H22.01a1.1,1.1,0,0,1,1.1,1.1ZM11.779,44.618a3.546,3.546,0,0,1,3.542-3.542H22.01a3.546,3.546,0,0,1,3.542,3.542v2.635H24.323V44.618A2.316,2.316,0,0,0,22.01,42.3H15.321a2.316,2.316,0,0,0-2.314,2.314v2.635H11.779ZM6.369,56.455H9.254a.2.2,0,0,1,.2.2v.931H6.167v-.931a.2.2,0,0,1,.2-.2Zm3.086,4.475a1.644,1.644,0,0,1-3.288,0V58.8H9.455v2.127Z" transform="translate(0 -39.861)"/>
      <path id="Path_5205" data-name="Path 5205" d="M41.641,64.945A10.07,10.07,0,0,0,23.372,59.1c-.929.677-1.876,4.179-1.876,5.848a10.073,10.073,0,1,0,20.145,0ZM39.5,68.882a19.453,19.453,0,0,0-2.845-.536,19.15,19.15,0,0,0,0-6.8,19.453,19.453,0,0,0,2.845-.536,8.843,8.843,0,0,1,0,7.873Zm-4.345-8.408c-.936.077-1.942.123-2.98.137v-4.42C33.73,56.717,34.706,58.9,35.156,60.474Zm-4.2-4.286v4.423c-1.038-.013-2.043-.06-2.979-.137C28.622,58.221,29.721,56.6,30.96,56.188ZM27.979,69.416c.936-.077,1.942-.124,2.981-.137V73.7C29.722,73.3,28.62,71.679,27.979,69.416Zm4.2,4.283V69.28c1.039.013,2.045.06,2.98.137C34.706,70.994,33.73,73.174,32.175,73.7Zm0-5.635V61.826c1.147-.014,2.247-.067,3.265-.155a17.756,17.756,0,0,1,0,6.548C34.423,68.132,33.322,68.078,32.175,68.065Zm6.684-8.142a20.187,20.187,0,0,1-2.473.429,10.524,10.524,0,0,0-1.725-3.706A8.9,8.9,0,0,1,38.859,59.922ZM28.467,56.648a10.483,10.483,0,0,0-1.718,3.7,20.2,20.2,0,0,1-2.472-.429A8.9,8.9,0,0,1,28.467,56.648Zm-4.832,4.36a19.452,19.452,0,0,0,2.846.536,18.286,18.286,0,0,0-.267,2.186.608.608,0,1,0,1.213.076,16.706,16.706,0,0,1,.27-2.135c1.017.088,2.117.141,3.264.155v6.238c-1.146.014-2.246.067-3.264.155a16.547,16.547,0,0,1-.234-1.663.608.608,0,0,0-1.21.108c.052.574.13,1.136.232,1.68a19.445,19.445,0,0,0-2.849.537,8.843,8.843,0,0,1,0-7.873Zm.642,8.96a20.209,20.209,0,0,1,2.479-.43,10.635,10.635,0,0,0,1.719,3.707A8.9,8.9,0,0,1,24.277,69.968Zm10.384,3.277a10.524,10.524,0,0,0,1.725-3.706,20.2,20.2,0,0,1,2.473.429A8.9,8.9,0,0,1,34.661,73.245Z" transform="translate(2 -39.861)" fill="#97144d"/>
    </g>
  </g>
</svg>
