<svg id="Group_1116" data-name="Group 1116" xmlns="http://www.w3.org/2000/svg" width="50.5" height="27.393" viewBox="0 0 50.5 27.393">
  <path id="Path_4407" data-name="Path 4407" d="M5.694,143.05H1.479V118.617H43.127a.74.74,0,0,0,0-1.48H.74a.74.74,0,0,0-.74.74V143.79a.74.74,0,0,0,.74.74H5.694a.74.74,0,0,0,0-1.479Z" transform="translate(0 -117.137)" fill="#454545"/>
  <path id="Path_4408" data-name="Path 4408" d="M126.65,117.137h-3.189a.74.74,0,0,0,0,1.479h2.45V143.05H86.044a.74.74,0,1,0,0,1.479H126.65a.74.74,0,0,0,.74-.74V117.877A.74.74,0,0,0,126.65,117.137Z" transform="translate(-76.89 -117.137)" fill="#454545"/>
  <path id="Path_4409" data-name="Path 4409" d="M39.528,151.129v-.916a.74.74,0,0,0-.74-.74H33.076a.74.74,0,0,0-.74.74v.916a.74.74,0,0,0,.74.74h5.712A.74.74,0,0,0,39.528,151.129Zm-1.479-.74H33.815v.563h4.233Z" transform="translate(-29.147 -146.284)" fill="#97144d"/>
  <path id="Path_4410" data-name="Path 4410" d="M113.915,318.743h13.953a.74.74,0,0,0,.74-.74v-.092a.74.74,0,0,0-.74-.74H113.915a.74.74,0,0,0-.74.74V318A.74.74,0,0,0,113.915,318.743Zm13.214-1.48h0Z" transform="translate(-102.012 -294.539)" fill="#454545"/>
  <path id="Path_4411" data-name="Path 4411" d="M117.9,248.5h-3.987a.74.74,0,1,0,0,1.479H117.9a.74.74,0,0,0,0-1.479Z" transform="translate(-102.012 -235.543)" fill="#454545"/>
  <path id="Path_4412" data-name="Path 4412" d="M117.9,216.164h-3.987a.74.74,0,0,0,0,1.48H117.9a.74.74,0,0,0,0-1.48Z" transform="translate(-102.012 -206.397)" fill="#454545"/>
  <path id="Path_4413" data-name="Path 4413" d="M312.159,275.936a.74.74,0,0,0-1.046,0l-1.428,1.428v-.956a1.238,1.238,0,0,0-2.082-.906l-2.3,2.146v-1.361a1.238,1.238,0,0,0-2-.974l-8.961,7.041a.74.74,0,1,0,.914,1.163l8.571-6.734V278.2a1.238,1.238,0,0,0,2.082.906l2.3-2.146v.983a1.238,1.238,0,0,0,2.114.876l1.84-1.84A.74.74,0,0,0,312.159,275.936Z" transform="translate(-265.049 -259.474)" fill="#97144d"/>
  <path id="Path_4415" data-name="Path 4415" d="M186.67,249.979h13.555a.74.74,0,0,0,0-1.479H186.67a.74.74,0,1,0,0,1.479Z" transform="translate(-167.591 -235.543)" fill="#454545"/>
  <path id="Path_4418" data-name="Path 4418" d="M404.935,347.528a.74.74,0,0,0,0,1.48h5.98a.74.74,0,0,0,0-1.48Z" transform="translate(-364.328 -324.804)" fill="#454545"/>
  <path id="Path_4419" data-name="Path 4419" d="M214.178,216.164H186.67a.74.74,0,0,0,0,1.48h27.508a.74.74,0,1,0,0-1.48Z" transform="translate(-167.591 -206.397)" fill="#454545"/>
  <path id="Path_4420" data-name="Path 4420" d="M5.777-8.565h-2a1.488,1.488,0,0,1,.565.487,1.659,1.659,0,0,1,.249.659H5.777v.745H4.582a1.876,1.876,0,0,1-.538,1.012A2.478,2.478,0,0,1,2.9-5.045a1.145,1.145,0,0,1,.4.359L5.536-1.638H4.609a.449.449,0,0,1-.412-.22L2.2-4.6a.591.591,0,0,0-.2-.185.712.712,0,0,0-.324-.056h-.9v-.718H1.791A2.128,2.128,0,0,0,3-5.865a1.38,1.38,0,0,0,.587-.809H.774v-.745H3.607a1.222,1.222,0,0,0-.546-.828,2.218,2.218,0,0,0-1.227-.292H.784v-.777H5.777Z" transform="translate(3.16 21.907)" fill="#454545"/>
</svg>
