<svg id="code-of-conduct" xmlns="http://www.w3.org/2000/svg" width="18.756" height="24.008" viewBox="0 0 18.756 24.008">
  <path id="Path_5373" data-name="Path 5373" d="M320.469,452a.469.469,0,1,0,.469.469A.469.469,0,0,0,320.469,452Zm0,0" transform="translate(-304.995 -430.806)"/>
  <path id="Path_5374" data-name="Path 5374" d="M121.407,73.5a1.409,1.409,0,0,0,1.326-.938h1.018v6.377a1.407,1.407,0,1,0,2.813,0V72.565h1.018a1.407,1.407,0,0,0,2.733-.469V67.407a1.407,1.407,0,0,0-2.733-.469h-4.849a1.407,1.407,0,0,0-2.734.469V72.1A1.408,1.408,0,0,0,121.407,73.5Zm6.1-1.876h-4.689V67.876H127.5Zm-1.876,7.315a.469.469,0,1,1-.938,0V72.565h.938Zm3.282-12a.469.469,0,0,1,.469.469V72.1a.469.469,0,1,1-.938,0V67.407A.469.469,0,0,1,128.909,66.938Zm-7.971.469a.469.469,0,1,1,.938,0V72.1a.469.469,0,0,1-.938,0Zm0,0" transform="translate(-114.373 -62.905)"/>
  <path id="Path_5375" data-name="Path 5375" d="M200.469,126.938h1.876a.469.469,0,1,0,0-.938h-1.876a.469.469,0,1,0,0,.938Zm0,0" transform="translate(-190.622 -120.092)"/>
  <path id="Path_5376" data-name="Path 5376" d="M0,21.663a2.347,2.347,0,0,0,2.345,2.345H18.287a.469.469,0,0,0,.26-.859,1.786,1.786,0,0,1,0-2.971h0a.47.47,0,0,0,.208-.384s0,0,0-.005V.469A.469.469,0,0,0,18.287,0H2.345A2.347,2.347,0,0,0,0,2.345ZM17.205,23.07H2.345a1.407,1.407,0,0,1,0-2.814H17.205a2.73,2.73,0,0,0,0,2.814Zm.613-3.751H3.751V.938H17.818ZM2.345.938h.469V19.319H2.345a2.326,2.326,0,0,0-1.407.469V2.345A1.408,1.408,0,0,1,2.345.938Zm0,0"/>
  <path id="Path_5377" data-name="Path 5377" d="M70.719,452H60.469a.469.469,0,0,0,0,.938h10.25a.469.469,0,0,0,0-.938Zm0,0" transform="translate(-57.187 -430.806)"/>
</svg>
