<svg id="credit" xmlns="http://www.w3.org/2000/svg" width="44.478" height="32.617" viewBox="0 0 44.478 32.617">
  <path id="Path_4369" data-name="Path 4369" d="M41.352,8H3.126A3.13,3.13,0,0,0,0,11.126V37.491a3.13,3.13,0,0,0,3.126,3.126H41.352a3.13,3.13,0,0,0,3.126-3.126V11.126A3.13,3.13,0,0,0,41.352,8ZM43,37.491a1.645,1.645,0,0,1-1.643,1.643H3.126a1.645,1.645,0,0,1-1.643-1.643V11.126A1.645,1.645,0,0,1,3.126,9.483H41.352A1.645,1.645,0,0,1,43,11.126Z" transform="translate(0 -8)"/>
  <path id="Path_4370" data-name="Path 4370" d="M18.075,31l-2.7-1.377v-.287A5.355,5.355,0,0,0,17.907,26.1a2.206,2.206,0,0,0,1.177-1.955v-.741a2.21,2.21,0,0,0-.853-1.741c-.463-2.8-2.418-4.222-5.818-4.222q-.241,0-.471.018a3.752,3.752,0,0,1-2.39-.549,3.038,3.038,0,0,1-.678-.588.888.888,0,0,0-1.583.648c.031.277.078.6.148.953.143.723.143.723-.058,1.155-.076.164-.169.363-.279.632a8.278,8.278,0,0,0-.52,1.962,2.213,2.213,0,0,0-.841,1.732v.741A2.206,2.206,0,0,0,6.918,26.1a5.351,5.351,0,0,0,2.529,3.235v.279L6.654,31A3.171,3.171,0,0,0,5,33.781v.982c0,.6,0,1.988,7.413,1.988s7.413-1.393,7.413-1.988v-.923A3.156,3.156,0,0,0,18.075,31Zm.268,3.592c-.463.282-2.344.673-5.93.673s-5.468-.391-5.93-.673v-.815a1.677,1.677,0,0,1,.854-1.469L10.2,30.9a1.317,1.317,0,0,0,.734-1.177V28.389l-.448-.193a3.93,3.93,0,0,1-2.235-2.827l-.106-.4-.39-.122a.748.748,0,0,1-.527-.7v-.741a.741.741,0,0,1,.4-.649l.348-.185.041-.392a6.96,6.96,0,0,1,.461-1.905c.1-.241.182-.421.251-.569A2.189,2.189,0,0,0,9,18.318a5.29,5.29,0,0,0,3.056.623c.115-.01.233-.014.354-.014,2.775,0,4.131,1.005,4.4,3.26l.046.387.345.182a.744.744,0,0,1,.4.652v.741a.746.746,0,0,1-.528.7l-.39.122-.106.4A3.93,3.93,0,0,1,14.343,28.2l-.448.193v1.342A1.3,1.3,0,0,0,14.61,30.9l2.8,1.43a1.68,1.68,0,0,1,.935,1.512Z" transform="translate(-1.294 -10.065)" fill="#990d4c"/>
  <path id="Path_4371" data-name="Path 4371" d="M29.741,22.483h7.413a.741.741,0,0,0,0-1.483H29.741a.741.741,0,0,0,0,1.483Z" transform="translate(-7.502 -11.363)"/>
  <path id="Path_4372" data-name="Path 4372" d="M43.741,22.483h.741a.741.741,0,0,0,0-1.483h-.741a.741.741,0,0,0,0,1.483Z" transform="translate(-11.124 -11.363)"/>
  <path id="Path_4373" data-name="Path 4373" d="M30.483,38h-.741a.741.741,0,1,0,0,1.483h.741a.741.741,0,1,0,0-1.483Z" transform="translate(-7.502 -15.761)"/>
  <path id="Path_4374" data-name="Path 4374" d="M36.224,38H34.741a.741.741,0,1,0,0,1.483h1.483a.741.741,0,1,0,0-1.483Z" transform="translate(-8.796 -15.761)"/>
  <path id="Path_4375" data-name="Path 4375" d="M41.483,38h-.741a.741.741,0,0,0,0,1.483h.741a.741.741,0,0,0,0-1.483Z" transform="translate(-10.348 -15.761)"/>
  <path id="Path_4376" data-name="Path 4376" d="M47.224,38H45.741a.741.741,0,0,0,0,1.483h1.483a.741.741,0,0,0,0-1.483Z" transform="translate(-11.642 -15.761)"/>
  <path id="Path_4377" data-name="Path 4377" d="M51.215,38.218a.741.741,0,1,0,1.053,0A.775.775,0,0,0,51.215,38.218Z" transform="translate(-13.194 -15.764)"/>
  <path id="Path_4378" data-name="Path 4378" d="M46.05,27H29.741a.741.741,0,1,0,0,1.483H46.05a.741.741,0,1,0,0-1.483Z" transform="translate(-7.502 -12.915)"/>
  <path id="Path_4379" data-name="Path 4379" d="M46.05,33H29.741a.741.741,0,1,0,0,1.483H46.05a.741.741,0,1,0,0-1.483Z" transform="translate(-7.502 -14.468)"/>
</svg>
