<svg xmlns="http://www.w3.org/2000/svg" width="48.064" height="43.289" viewBox="0 0 48.064 43.289">
  <g id="credit-card" transform="translate(0 -0.344)">
    <path id="Path_4404" data-name="Path 4404" d="M72.4,323.115a3.59,3.59,0,0,0-3.453,2.627,3.584,3.584,0,1,0,0,1.914,3.584,3.584,0,1,0,3.453-4.54Zm-6.906,5.821a2.237,2.237,0,1,1,2.237-2.237A2.237,2.237,0,0,1,65.494,328.935Zm6.906,0a2.237,2.237,0,1,1,2.237-2.237A2.237,2.237,0,0,1,72.4,328.935Zm0,0" transform="translate(-55.955 -291.724)" fill="#454545"/>
    <path id="Path_4405" data-name="Path 4405" d="M35.117.344A12.953,12.953,0,0,0,22.31,11.41H4.655A4.68,4.68,0,0,0,0,16.057V39a4.664,4.664,0,0,0,4.655,4.629H40.961A4.643,4.643,0,0,0,45.593,39V20.9A12.951,12.951,0,0,0,35.117.344ZM4.655,12.757H22.187c-.007.192-.011.352-.011.524A12.864,12.864,0,0,0,23.2,18.335H1.347V16.057A3.332,3.332,0,0,1,4.655,12.757Zm26.5,12.889H1.347V19.682H23.868A13.29,13.29,0,0,0,31.158,25.646Zm9.8,16.641H4.655A3.316,3.316,0,0,1,1.347,39V26.992h42.9V39A3.3,3.3,0,0,1,40.961,42.286ZM39.076,25.646a13.625,13.625,0,0,0,5.171-3.172v3.172Zm-3.96-.753A11.594,11.594,0,1,1,46.711,13.3,11.595,11.595,0,0,1,35.117,24.893Zm0,0" fill="#454545"/>
    <path id="Path_4406" data-name="Path 4406" d="M293.43,38.082l-.124-.718a4.01,4.01,0,0,0-2.4-3.091,4.11,4.11,0,0,0-3.207,0,4.066,4.066,0,0,0-2.4,3.083l-.123.711-.049.011c-2.573.538-3.99,1.509-3.99,2.732,0,.828.66,1.5,1.718,2v2.044a.69.69,0,0,0-.244.239.673.673,0,0,0,.017.715l.228.346v3.362a1.882,1.882,0,0,0,.882,1.6L288.3,54a1.9,1.9,0,0,0,2.02,0l4.553-2.883a1.869,1.869,0,0,0,.87-1.6V46.161l.239-.346a.674.674,0,0,0,.011-.715.7.7,0,0,0-.25-.239V42.837c1.443-.659,1.73-1.432,1.73-2.006C297.474,39.594,296.045,38.618,293.43,38.082Zm-6.8-.5a2.707,2.707,0,0,1,3.748-2.067,2.671,2.671,0,0,1,1.6,2.065.09.09,0,0,1,0,.011l.314,1.819-.544.169a7.879,7.879,0,0,1-4.9,0l-.537-.167Zm2.681,6.38a19.137,19.137,0,0,0,5.089-.63v1.525l-4.046.343a1.762,1.762,0,0,0-2.1,0l-4.052-.343V43.318A18.9,18.9,0,0,0,289.309,43.959Zm4.8,2.273-1.119,1.7L291.6,46.444Zm-7.085.212-1.386,1.486-1.119-1.7Zm7.376,3.078a.53.53,0,0,1-.242.46l-4.56,2.883a.542.542,0,0,1-.578,0l-4.563-2.883a.54.54,0,0,1-.253-.46V48.2l.78,1.182a.674.674,0,0,0,.506.3l.057,0a.673.673,0,0,0,.492-.214l2.915-3.124a.5.5,0,0,1,.721,0l2.915,3.123a.673.673,0,0,0,.492.214l.056,0a.653.653,0,0,0,.495-.3L294.4,48.2Zm-5.077-6.91c-4.51,0-6.836-1.261-6.836-1.8,0-.233.628-.851,2.443-1.3l-.044.251a.674.674,0,0,0,.463.758l1.092.34a9.193,9.193,0,0,0,2.857.457,9.3,9.3,0,0,0,2.859-.454l1.1-.343a.674.674,0,0,0,.463-.758l-.042-.241c1.844.455,2.46,1.066,2.46,1.313,0,.533-2.32,1.782-6.818,1.782Zm0,0" transform="translate(-254.095 -30.373)" fill="#97144d"/>
  </g>
</svg>
