<svg id="debit" xmlns="http://www.w3.org/2000/svg" width="40.105" height="40.065" viewBox="0 0 40.105 40.065">
  <g id="Group_1083" data-name="Group 1083">
    <path id="Path_4366" data-name="Path 4366" d="M39.826,14.63,35.345,2.98A4.274,4.274,0,0,0,29.82.53l-.1.038L7.333,9.85A4.254,4.254,0,0,0,4.97,15.293l.616,1.643H4.173A4.178,4.178,0,0,0,0,21.11V36.134a4.178,4.178,0,0,0,4.173,4.173h28.38a4.178,4.178,0,0,0,4.173-4.173V21.11a4.1,4.1,0,0,0-.06-.676l.775-.314A4.289,4.289,0,0,0,39.826,14.63ZM4.173,18.272h28.38a2.834,2.834,0,0,1,2.821,2.671H1.352A2.834,2.834,0,0,1,4.173,18.272Zm6.712-4.023S14,12,15.348,12.017s.917,2.3.917,2.3L11.8,16.544ZM35.391,36.134a2.841,2.841,0,0,1-2.838,2.838H4.173a2.841,2.841,0,0,1-2.838-2.838V27.62H35.391Zm0-9.849H1.336V22.278H35.391Zm1.55-7.4-.7.282a4.175,4.175,0,0,0-3.69-2.232H14l3.409-1.7a.668.668,0,0,0,.322-.845l-1.416-3.539a.668.668,0,0,0-.868-.372L15.4,10.5,9.738,13.33a.668.668,0,0,0-.321.845l1.1,2.76H7.011l-.791-2.109a2.923,2.923,0,0,1,1.624-3.739l22.39-9.282a2.934,2.934,0,0,1,3.834,1.586l.028.07,4.481,11.65A2.948,2.948,0,0,1,36.941,18.886Z" transform="translate(0 -0.243)"/>
    <path id="Path_4367" data-name="Path 4367" d="M265.874,359.7a4.006,4.006,0,0,0,4.025,0,4.007,4.007,0,1,0,0-6.929,4.007,4.007,0,1,0-4.025,6.929Zm5.142-5.972a2.671,2.671,0,1,1,0,5.016A3.991,3.991,0,0,0,271.016,353.728Zm-1.116.76a2.622,2.622,0,0,1,0,3.5A2.622,2.622,0,0,1,269.9,354.488Zm-2-.923a2.642,2.642,0,0,1,.887.163,3.991,3.991,0,0,0,0,5.016,2.666,2.666,0,1,1-.887-5.179Z" transform="translate(-241.853 -322.849)" fill="#97144d"/>
    <rect id="Rectangle_177" data-name="Rectangle 177" width="1.336" height="6.971" transform="translate(28.71 15.001) rotate(-113.966)" fill="#990d4c"/>
    <rect id="Rectangle_178" data-name="Rectangle 178" width="10.134" height="1.335" transform="matrix(0.908, -0.419, 0.419, 0.908, 23.915, 12.369)" fill="#990d4c"/>
  </g>
</svg>
