<svg xmlns="http://www.w3.org/2000/svg" width="36.962" height="47.289" viewBox="0 0 36.962 47.289">
  <g id="download" transform="translate(-55.907)">
    <path id="Path_4427" data-name="Path 4427" d="M92.666,10.916,89.128,7.379V2.1a2.1,2.1,0,0,0-2.1-2.1H57.983a2.078,2.078,0,0,0-2.076,2.076V36.9a2.078,2.078,0,0,0,2.076,2.076h1.174v1.157a2.078,2.078,0,0,0,2.076,2.076h4.5a.693.693,0,1,0,0-1.385h-4.5a.691.691,0,0,1-.69-.69V12.28a.693.693,0,0,0-1.385,0V37.589H57.983a.691.691,0,0,1-.69-.69V2.076a.691.691,0,0,1,.69-.69H87.026a.717.717,0,0,1,.717.717V5.993L85.185,3.435a.693.693,0,0,0-.49-.2H61.233a2.078,2.078,0,0,0-2.076,2.076V9.056a.693.693,0,1,0,1.385,0V5.308a.691.691,0,0,1,.69-.69H84V11.4a.693.693,0,0,0,.693.693h6.789V40.132a.691.691,0,0,1-.69.69H86.344a.693.693,0,0,0,0,1.385h4.449a2.078,2.078,0,0,0,2.076-2.076V11.406a.693.693,0,0,0-.2-.49Zm-7.278-.2V5.6L90.5,10.713Z" transform="translate(0 0)" fill="#454545"/>
    <path id="Path_4428" data-name="Path 4428" d="M193.833,175.456H177.261a.693.693,0,1,0,0,1.385h16.572a.693.693,0,1,0,0-1.385Z" transform="translate(-109.516 -159.25)" fill="#97144d"/>
    <path id="Path_4429" data-name="Path 4429" d="M193.833,219.688H177.261a.693.693,0,1,0,0,1.385h16.572a.693.693,0,1,0,0-1.385Z" transform="translate(-109.516 -199.397)" fill="#454545"/>
    <path id="Path_4430" data-name="Path 4430" d="M324.51,264.8h-3.274a.693.693,0,1,0,0,1.385h3.274a.693.693,0,1,0,0-1.385Z" transform="translate(-240.194 -240.344)" fill="#454545"/>
    <path id="Path_4431" data-name="Path 4431" d="M187.3,266.187a.693.693,0,1,0,0-1.385H177.261a.693.693,0,1,0,0,1.385Z" transform="translate(-109.516 -240.344)" fill="#454545"/>
    <path id="Path_4432" data-name="Path 4432" d="M239.744,370.542l-1.847,1.847v-6.7a.693.693,0,1,0-1.385,0v6.7l-1.847-1.847a.693.693,0,0,0-.98.98l3.029,3.029a.693.693,0,0,0,.98,0l3.029-3.029a.693.693,0,0,0-.98-.98Z" transform="translate(-161.174 -331.287)" fill="#97144d"/>
    <path id="Path_4433" data-name="Path 4433" d="M188.28,323.61a8.7,8.7,0,1,0,8.7,8.7A8.71,8.71,0,0,0,188.28,323.61Zm0,16.015a7.315,7.315,0,1,1,7.315-7.314A7.323,7.323,0,0,1,188.28,339.625Z" transform="translate(-112.25 -293.721)" fill="#454545"/>
  </g>
</svg>
