<svg xmlns="http://www.w3.org/2000/svg" width="57.988" height="58.585" viewBox="0 0 57.988 58.585">
  <g id="email" transform="translate(0 0)">
    <path id="Path_4999" data-name="Path 4999" d="M70.1,68.4H13.894a.888.888,0,0,1-.888-.888V29.638a.888.888,0,1,1,1.775,0V66.62H69.213V29.638a.888.888,0,1,1,1.775,0v37.87a.888.888,0,0,1-.889.888Z" transform="translate(-13 -9.811)" fill="#171717"/>
    <path id="Path_5000" data-name="Path 5000" d="M41.994,50.392a.889.889,0,0,1-.5-.151L13.393,31.312a.888.888,0,0,1,0-1.472L22.348,23.8a.888.888,0,1,1,.992,1.472l-7.863,5.3L41.994,48.434,68.5,30.576l-7.862-5.3a.888.888,0,1,1,.992-1.472l8.954,6.036a.888.888,0,0,1,0,1.472L42.495,50.24a.891.891,0,0,1-.5.151Z" transform="translate(-13.001 -10.746)" fill="#171717"/>
    <path id="Path_5001" data-name="Path 5001" d="M46.892,19.925a.875.875,0,0,1-.495-.151L38.879,14.7l-7.514,5.065a.888.888,0,1,1-.992-1.473l8.01-5.4a.89.89,0,0,1,.992,0l8.008,5.4a.888.888,0,0,1-.5,1.625Z" transform="translate(-9.886 -12.746)" fill="#171717"/>
    <path id="Path_5002" data-name="Path 5002" d="M13.895,65.7a.888.888,0,0,1-.553-1.583L39.153,43.64a.888.888,0,1,1,1.1,1.392L14.44,65.505a.885.885,0,0,1-.546.194Z" transform="translate(-13 -7.114)" fill="#171717"/>
    <path id="Path_5003" data-name="Path 5003" d="M65.387,65.7a.885.885,0,0,1-.55-.192L39.021,45.034a.888.888,0,0,1,1.1-1.394L65.94,64.113a.888.888,0,0,1-.553,1.583Z" transform="translate(-8.29 -7.114)" fill="#171717"/>
    <path id="Path_5004" data-name="Path 5004" d="M59.755,38.685a.888.888,0,0,1-.888-.888V19.087H22.343V37.8a.888.888,0,1,1-1.775,0V18.2a.888.888,0,0,1,.888-.888h38.3a.888.888,0,0,1,.888.888V37.8A.888.888,0,0,1,59.755,38.685Z" transform="translate(-11.613 -11.909)" fill="#171717"/>
    <path id="Path_5005" data-name="Path 5005" d="M51.07,24.516H27.809a.888.888,0,0,1,0-1.775H51.07a.888.888,0,1,1,0,1.775Z" transform="translate(-10.448 -10.913)" fill="#97144d"/>
    <path id="Path_5006" data-name="Path 5006" d="M51.07,29.62H27.809a.888.888,0,0,1,0-1.775H51.07a.888.888,0,0,1,0,1.775Z" transform="translate(-10.448 -9.977)" fill="#97144d"/>
    <path id="Path_5007" data-name="Path 5007" d="M51.07,34.724H27.809a.888.888,0,0,1,0-1.775H51.07a.888.888,0,1,1,0,1.775Z" transform="translate(-10.448 -9.04)" fill="#97144d"/>
    <path id="Path_5008" data-name="Path 5008" d="M32.063,58.775h-.643a.888.888,0,1,1,0-1.775h.643a.888.888,0,1,1,0,1.775Z" transform="translate(-9.785 -4.628)" fill="#171717"/>
    <path id="Path_5009" data-name="Path 5009" d="M38.008,58.775h-.641a.888.888,0,0,1,0-1.775h.641a.888.888,0,1,1,0,1.775Z" transform="translate(-8.694 -4.628)" fill="#171717"/>
    <path id="Path_5010" data-name="Path 5010" d="M43.954,58.775h-.643a.888.888,0,1,1,0-1.775h.643a.888.888,0,1,1,0,1.775Z" transform="translate(-7.604 -4.628)" fill="#171717"/>
  </g>
</svg>
