<svg xmlns="http://www.w3.org/2000/svg" width="32" height="30.528" viewBox="0 0 32 30.528">
  <g id="noun_Discount_3848234" transform="translate(-3.3 -3.723)">
    <g id="Group_1285" data-name="Group 1285" transform="translate(3.3 3.723)">
      <path id="Path_5114" data-name="Path 5114" d="M35.116,18.449l-2.858-3.675.143-4.658a.869.869,0,0,0-.628-.869l-4.48-1.281L24.685,4.107a.869.869,0,0,0-1.017-.332L19.3,5.366,14.918,3.777a.869.869,0,0,0-1.017.33L11.3,7.965,6.823,9.255a.869.869,0,0,0-.628.869l.151,4.654-2.863,3.67a.869.869,0,0,0,0,1.067l2.858,3.675L6.19,27.849a.869.869,0,0,0,.628.869l4.473,1.29L13.9,33.867a.869.869,0,0,0,1.017.332l4.38-1.591L23.673,34.2a.845.845,0,0,0,.3.052.869.869,0,0,0,.72-.382L27.3,30.009l4.475-1.29a.869.869,0,0,0,.628-.869L32.25,23.2l2.867-3.679A.869.869,0,0,0,35.116,18.449Zm-4.433,3.924a.869.869,0,0,0-.183.562l.141,4.293-4.127,1.189a.869.869,0,0,0-.48.348l-2.4,3.557-4.037-1.466a.869.869,0,0,0-.3-.052.854.854,0,0,0-.3.052l-4.04,1.466-2.4-3.555a.883.883,0,0,0-.48-.348L7.949,27.229l.141-4.293a.869.869,0,0,0-.174-.562L5.27,18.983l2.637-3.39a.869.869,0,0,0,.174-.562l-.132-4.293,4.127-1.189a.869.869,0,0,0,.48-.348l2.4-3.557L19,7.11a.878.878,0,0,0,.593,0l4.04-1.466,2.4,3.557a.883.883,0,0,0,.48.348l4.127,1.189L30.5,15.031a.869.869,0,0,0,.183.562l2.637,3.39ZM24.828,14.68l-9.835,9.835a.869.869,0,1,1-1.229-1.229L23.6,13.45a.869.869,0,1,1,1.229,1.229ZM21.14,20.825h0a2.608,2.608,0,1,0,1.843-.764,2.608,2.608,0,0,0-1.843.764Zm2.458,2.46a.869.869,0,1,1,0-1.229A.869.869,0,0,1,23.6,23.286Zm-8-5.39a2.608,2.608,0,1,0-1.843-4.453h0A2.608,2.608,0,0,0,15.6,17.894Zm-.614-3.222a.865.865,0,1,0,.005.005Z" transform="translate(-3.3 -3.723)"/>
    </g>
  </g>
</svg>
