<svg xmlns="http://www.w3.org/2000/svg" width="71.209" height="70.925" viewBox="0 0 71.209 70.925">
  <g id="Grievance_Redressal_Policy" data-name="Grievance Redressal Policy" transform="translate(-2 -2)">
    <path id="Path_8179" data-name="Path 8179" d="M14,8h7.092v2.364H14Z" transform="translate(2.185 1.092)"/>
    <path id="Path_8180" data-name="Path 8180" d="M22,8h9.457v2.364H22Z" transform="translate(3.642 1.092)"/>
    <path id="Path_8181" data-name="Path 8181" d="M14,12H32.913v2.364H14Z" transform="translate(2.185 1.821)"/>
    <path id="Path_8182" data-name="Path 8182" d="M22,18H43.277v2.364H22Z" transform="translate(3.642 2.913)"/>
    <path id="Path_8183" data-name="Path 8183" d="M26,22H49.642v2.364H26Z" transform="translate(4.37 3.642)"/>
    <path id="Path_8184" data-name="Path 8184" d="M42,18h4.728v2.364H42Z" transform="translate(7.283 2.913)"/>
    <path id="Path_8185" data-name="Path 8185" d="M30,26H46.549v2.364H30Z" transform="translate(5.098 4.37)"/>
    <path id="Path_8186" data-name="Path 8186" d="M73.152,16.7a3.546,3.546,0,0,0-6.4-1.418L61.983,22.1H61.1V5.546A3.546,3.546,0,0,0,57.558,2H12.639A3.546,3.546,0,0,0,9.092,5.546V6.728H5.546A3.546,3.546,0,0,0,2,10.275v59.1a3.546,3.546,0,0,0,3.546,3.546h59.1A3.546,3.546,0,0,0,68.2,69.379V25.594l4.374-6.244a3.52,3.52,0,0,0,.582-2.649ZM46.219,52.853,44.283,51.5,62.589,25.353l1.936,1.352Zm-3.24.618,1.831,1.283L41.973,56.86ZM63.941,23.417,65.3,21.481l1.936,1.355-1.356,1.937ZM46.919,4.364h4.728v7.092L50.229,9.565a1.225,1.225,0,0,0-1.891,0l-1.418,1.891Zm-34.28,0H44.555V15a1.182,1.182,0,0,0,2.128.709l2.6-3.467,2.6,3.467a1.182,1.182,0,0,0,.946.473,1.2,1.2,0,0,0,.374-.06A1.182,1.182,0,0,0,54.012,15V4.364h3.546A1.182,1.182,0,0,1,58.74,5.546V26.728L52.052,36.28H35.588L20.567,21.26a1.182,1.182,0,0,0-.836-.346H11.457V5.546a1.182,1.182,0,0,1,1.182-1.182ZM5.546,9.092H9.092V20.913H4.364V10.275A1.182,1.182,0,0,1,5.546,9.092ZM65.832,69.379a1.182,1.182,0,0,1-1.182,1.182H5.546a1.182,1.182,0,0,1-1.182-1.182v-46.1H19.242L34.263,38.3a1.182,1.182,0,0,0,.836.346H50.4L40.99,52.078a1.169,1.169,0,0,0-.164.342L38.7,59.585a1.182,1.182,0,0,0,1.838,1.283l6-4.453a1.182,1.182,0,0,0,.265-.272l12.25-17.5h6.778Zm0-33.1H61.1v-.563l4.728-6.753Zm4.795-18.286-2.033,2.9L66.66,19.543l2.033-2.906a1.181,1.181,0,0,1,1.934,1.357Z"/>
    <path id="Path_8187" data-name="Path 8187" d="M19.91,42.364a3.552,3.552,0,0,1,2.66,1.2L24.343,42a5.91,5.91,0,1,0,0,7.818L22.57,48.256a3.546,3.546,0,1,1-2.66-5.891Z" transform="translate(2.185 6.919)" fill="#97144d"/>
    <path id="Path_8188" data-name="Path 8188" d="M20.639,36A10.639,10.639,0,1,0,31.277,46.639,10.639,10.639,0,0,0,20.639,36Zm0,18.913a8.275,8.275,0,1,1,8.275-8.275A8.275,8.275,0,0,1,20.639,54.913Z" transform="translate(1.457 6.191)" fill="#97144d"/>
  </g>
</svg>
