<svg id="instant-chat" xmlns="http://www.w3.org/2000/svg" width="65.995" height="65.999" viewBox="0 0 65.995 65.999">
  <g id="Group_1163" data-name="Group 1163">
    <path id="Path_5033" data-name="Path 5033" d="M83.505,281.541H57.039a.967.967,0,0,0,0,1.934H83.505a.967.967,0,0,0,0-1.934Z" transform="translate(-48.846 -245.249)" fill="#171717"/>
    <path id="Path_5034" data-name="Path 5034" d="M83.505,328.871H57.039a.967.967,0,1,0,0,1.933H83.505a.967.967,0,0,0,0-1.933Z" transform="translate(-48.846 -286.478)" fill="#171717"/>
    <path id="Path_5035" data-name="Path 5035" d="M70.272,376.2H57.039a.967.967,0,1,0,0,1.934H70.272a.967.967,0,1,0,0-1.934Z" transform="translate(-48.846 -327.707)" fill="#171717"/>
    <path id="Path_5036" data-name="Path 5036" d="M280.822,186.88H254.356a.967.967,0,0,0,0,1.934h26.467a.967.967,0,0,0,0-1.934Z" transform="translate(-220.728 -162.79)" fill="#171717"/>
    <path id="Path_5037" data-name="Path 5037" d="M370.249,234.21H357.016a.967.967,0,0,0,0,1.934h13.233a.967.967,0,1,0,0-1.934Z" transform="translate(-310.155 -204.019)" fill="#171717"/>
    <path id="Path_5038" data-name="Path 5038" d="M39.917,44.2H59.253a.967.967,0,0,0,0-1.934H39.917a.967.967,0,1,0,0,1.934Z" transform="translate(-33.931 -36.82)" fill="#97144d"/>
    <path id="Path_5039" data-name="Path 5039" d="M39.917,81.7h9.668a.967.967,0,0,0,0-1.934H39.917a.967.967,0,0,0,0,1.934Z" transform="translate(-33.931 -69.485)" fill="#97144d"/>
    <path id="Path_5040" data-name="Path 5040" d="M36.627,225.624H6.255a6.247,6.247,0,0,0-6.24,6.24v15.687a6.247,6.247,0,0,0,6.24,6.24h.218l-1.249,6.937a1.537,1.537,0,0,0,2.571,1.387L16.35,254a.739.739,0,0,1,.511-.2H36.627a6.247,6.247,0,0,0,6.24-6.24V231.864A6.247,6.247,0,0,0,36.627,225.624Zm4.306,21.927a4.311,4.311,0,0,1-4.306,4.306H16.861a2.665,2.665,0,0,0-1.842.735l-7.678,7.288,1.085-6.023a1.7,1.7,0,0,0-1.672-2h-.5a4.311,4.311,0,0,1-4.306-4.306V231.864a4.311,4.311,0,0,1,4.306-4.306H36.627a4.311,4.311,0,0,1,4.306,4.306Z" transform="translate(-0.015 -196.54)" fill="#171717"/>
    <path id="Path_5041" data-name="Path 5041" d="M4.145,17.2h7.211a.042.042,0,0,1,.036.021l3.08,5.317a1.773,1.773,0,0,0,3.069,0l3.08-5.317a.042.042,0,0,1,.036-.021h7.211a3.747,3.747,0,0,0,3.743-3.743V3.743A3.747,3.747,0,0,0,27.867,0H4.145A3.747,3.747,0,0,0,.4,3.743v.408a.967.967,0,1,0,1.934,0V3.743A1.811,1.811,0,0,1,4.145,1.934H27.867a1.811,1.811,0,0,1,1.809,1.809v9.712a1.811,1.811,0,0,1-1.809,1.809H20.656a1.981,1.981,0,0,0-1.709.985l-2.941,5.078-2.941-5.078a1.981,1.981,0,0,0-1.709-.985H4.144a1.811,1.811,0,0,1-1.809-1.809V8.67A.967.967,0,1,0,.4,8.67v4.784A3.747,3.747,0,0,0,4.145,17.2Z" transform="translate(-0.352 0)" fill="#97144d"/>
    <path id="Path_5042" data-name="Path 5042" d="M247.732,140.754h-26.97a5.656,5.656,0,0,0-5.649,5.649v1.738a.967.967,0,1,0,1.934,0V146.4a3.72,3.72,0,0,1,3.715-3.716h26.97a3.72,3.72,0,0,1,3.716,3.716v13.747a3.72,3.72,0,0,1-3.716,3.716h-.443a1.617,1.617,0,0,0-1.591,1.9l.9,5.023-6.578-6.244a2.474,2.474,0,0,0-1.711-.683h-4.523a.967.967,0,1,0,0,1.934h4.523a.548.548,0,0,1,.379.151l7.6,7.211a1.473,1.473,0,0,0,2.464-1.33l-1.086-6.033h.064a5.656,5.656,0,0,0,5.649-5.649V146.4A5.655,5.655,0,0,0,247.732,140.754Z" transform="translate(-187.386 -122.61)" fill="#171717"/>
  </g>
</svg>
