<svg xmlns="http://www.w3.org/2000/svg" width="41.251" height="37.912" viewBox="0 0 41.251 37.912">
  <g id="investment" transform="translate(-1 -3.66)">
    <path id="Path_5115" data-name="Path 5115" d="M43.894,22.738a6.954,6.954,0,1,1,6.954-6.929,6.954,6.954,0,0,1-6.954,6.929Zm0-12.658a5.7,5.7,0,1,0,5.7,5.729A5.7,5.7,0,0,0,43.894,10.079Z" transform="translate(-13.485 -1.94)"/>
    <path id="Path_5116" data-name="Path 5116" d="M41.954,24.028A10.184,10.184,0,1,1,52.138,13.869,10.184,10.184,0,0,1,41.954,24.028Zm0-19.119a8.941,8.941,0,1,0,6.325,2.628A8.934,8.934,0,0,0,41.954,4.91Z" transform="translate(-11.545 0)"/>
    <path id="Path_5117" data-name="Path 5117" d="M46.876,21.329a2.006,2.006,0,0,1-2.006-2.006.625.625,0,0,1,1.25,0,.756.756,0,1,0,.756-.725,2,2,0,1,1,2-2,.625.625,0,0,1-1.25,0,.75.75,0,1,0-.75.75,2.006,2.006,0,0,1,0,4.011Z" transform="translate(-16.46 -4.105)"/>
    <path id="Path_5118" data-name="Path 5118" d="M47.7,15.154a.625.625,0,0,1-.625-.625V13.455a.625.625,0,0,1,1.25,0v1.075A.625.625,0,0,1,47.7,15.154Z" transform="translate(-17.29 -3.441)"/>
    <path id="Path_5119" data-name="Path 5119" d="M47.7,25.694a.625.625,0,0,1-.625-.625V23.995a.625.625,0,0,1,1.25,0v1.075A.625.625,0,0,1,47.7,25.694Z" transform="translate(-17.29 -7.395)"/>
    <path id="Path_5120" data-name="Path 5120" d="M26.549,53.9a9.147,9.147,0,0,1-2.974-.5L13.029,49.749a.625.625,0,0,1-.419-.587V37.135a.625.625,0,0,1,.625-.625h4.117A13.238,13.238,0,0,1,26.224,40.3h5.729a2.568,2.568,0,0,1,2.562,2.562,2.5,2.5,0,0,1-.087.625l9.222-2.5a2.324,2.324,0,0,1,1.693,4.3L30.754,52.873a9.1,9.1,0,0,1-4.2,1.025ZM13.86,48.687l10.128,3.505a7.885,7.885,0,0,0,6.192-.456l14.583-7.554a1.05,1.05,0,0,0,.581-.719,1.075,1.075,0,0,0-1.337-1.25L32.959,45.22a2.586,2.586,0,0,1-1.006.206h-9a.625.625,0,1,1,0-1.25h9a1.287,1.287,0,0,0,.494-.1h.069a1.312,1.312,0,0,0-.562-2.5H25.974a.625.625,0,0,1-.431-.169,12.141,12.141,0,0,0-8.2-3.624H13.86Z" transform="translate(-4.356 -12.326)"/>
    <path id="Path_5121" data-name="Path 5121" d="M7.642,50.75H2.874A1.874,1.874,0,0,1,1,48.876v-14.4A1.874,1.874,0,0,1,2.874,32.6h4.78a1.874,1.874,0,0,1,1.874,1.874V48.888A1.874,1.874,0,0,1,7.642,50.75ZM2.874,33.862a.625.625,0,0,0-.625.625v14.4a.625.625,0,0,0,.625.625h4.78a.625.625,0,0,0,.625-.625V34.474a.625.625,0,0,0-.625-.625Z" transform="translate(0 -10.859)"/>
  </g>
</svg>
