<svg height="512" viewBox="0 0 128 128" width="512" xmlns="http://www.w3.org/2000/svg"><g><path d="m123.606 98.564-11.28-9.992c-.01-.009-.017-.02-.026-.028l-9-7.969-.012-.009-18.888-16.729.233-.233a5.749 5.749 0 0 0 0-8.131l-6.847-6.847 8.027-8.026.177.177a7.75 7.75 0 0 0 10.96-10.96l-27.55-27.547a7.75 7.75 0 0 0 -10.96 10.96l.177.177-38.59 38.593-.176-.177a7.75 7.75 0 0 0 -10.96 10.96l27.545 27.547a7.75 7.75 0 1 0 10.964-10.96l-.176-.177 8.027-8.027 6.846 6.847a5.759 5.759 0 0 0 8.132 0l.233-.233 16.73 18.89.007.009 7.969 9c.009.01.02.017.029.026l9.992 11.281a12.924 12.924 0 0 0 9.376 4.386c.136 0 .271.006.406.006a13.049 13.049 0 0 0 8.639-22.815zm-62.687-93.819a4.25 4.25 0 0 1 6.011 0l27.546 27.546a4.25 4.25 0 0 1 -6.011 6.01l-1.414-1.414-24.718-24.718-1.414-1.414a4.256 4.256 0 0 1 0-6.01zm-16 83.11a4.25 4.25 0 0 1 -6.011 0l-27.543-27.546a4.25 4.25 0 0 1 6.011-6.009l27.546 27.545a4.249 4.249 0 0 1 0 6.01zm16.181-71.973 11.117 11.118 11.122 11.125-9.263 9.262-6.053 6.053-23.278 23.278-22.245-22.243zm3.471 59.656-6.845-6.847 17.585-17.591 6.847 6.847a2.249 2.249 0 0 1 0 3.181l-14.408 14.409a2.253 2.253 0 0 1 -3.183.001zm26.337 20.052 11.3-11.3 6.374 5.646-12.028 12.029zm-8.983-29.27 17.661 15.643-11 11-15.646-17.663zm39.775 48.763a9.554 9.554 0 0 1 -13.9-.417l-8.921-10.076 12.331-12.331 10.075 8.924a9.554 9.554 0 0 1 .419 13.9z"/><path d="m44.532 113.7v-1.389a9.761 9.761 0 0 0 -9.75-9.75h-17.054a9.761 9.761 0 0 0 -9.75 9.75v1.389a9.76 9.76 0 0 0 -7.978 9.581v2.969a1.75 1.75 0 0 0 1.75 1.75h49.011a1.751 1.751 0 0 0 1.75-1.75v-2.969a9.761 9.761 0 0 0 -7.979-9.581zm-33.054-1.389a6.257 6.257 0 0 1 6.25-6.25h17.054a6.257 6.257 0 0 1 6.25 6.25v1.22h-29.554zm37.533 12.189h-45.511v-1.219a6.257 6.257 0 0 1 6.25-6.25h33.011a6.257 6.257 0 0 1 6.25 6.25z"/></g></svg>