<svg xmlns="http://www.w3.org/2000/svg" width="32.734" height="42.697" viewBox="0 0 32.734 42.697">
  <g id="loan" style="mix-blend-mode: luminosity;isolation: isolate">
    <path id="Path_5077" data-name="Path 5077" d="M11.577,11.911a2.123,2.123,0,0,1-.274-.537,2.076,2.076,0,0,0-.818.327,3.131,3.131,0,0,1-1.673.535,3.244,3.244,0,0,1-.562-.051,2.988,2.988,0,0,1-1.936-1.219,1.629,1.629,0,0,0-2.37-.418,2.989,2.989,0,0,1-2.237.483l.248-1.4a1.628,1.628,0,0,0,1.277-.314,3.029,3.029,0,0,1,4.172.736,1.63,1.63,0,0,0,1.093.732,1.41,1.41,0,0,0,.621-.015,2.83,2.83,0,0,1-1.139-.6A2.989,2.989,0,0,1,6.911,8.14a1.626,1.626,0,0,0-.581-1.18,1.6,1.6,0,0,0-1.262-.367,2.927,2.927,0,0,1-2.178-.7L3.806,4.8a1.7,1.7,0,0,0,1.263.367A3.03,3.03,0,0,1,8.315,7.894,1.628,1.628,0,0,0,10.156,9.44a3.163,3.163,0,0,1,1.31.175,2.135,2.135,0,0,1,.826-.807L9.111,2.452a.712.712,0,0,1,.64-1.03A1.836,1.836,0,0,0,11.083.867a3.281,3.281,0,0,1,4.446,0,1.88,1.88,0,0,0,1.335.556A1.879,1.879,0,0,0,18.2.867a3.286,3.286,0,0,1,4.449,0,1.843,1.843,0,0,0,1.336.555.712.712,0,0,1,.637,1.03L21.442,8.808a2.112,2.112,0,0,1,.716,3.1A14.956,14.956,0,0,1,33.234,26.329V39.138A3.562,3.562,0,0,1,29.676,42.7H4.058A3.563,3.563,0,0,1,.5,39.138V26.329A14.957,14.957,0,0,1,11.577,11.911ZM21.759,1.978a1.882,1.882,0,0,0-2.671,0,3.285,3.285,0,0,1-4.448,0,1.877,1.877,0,0,0-2.667,0,3.781,3.781,0,0,1-1.155.7l2.931,5.862h6.237l2.93-5.861A3.8,3.8,0,0,1,21.759,1.978Zm-1.334,9.407a.712.712,0,1,0,0-1.423H13.309a.712.712,0,1,0,0,1.423ZM1.923,39.138a2.135,2.135,0,0,0,2.135,2.135H29.676a2.135,2.135,0,0,0,2.135-2.135V26.329A13.535,13.535,0,0,0,18.29,12.808H15.444A13.536,13.536,0,0,0,1.923,26.329Zm0,0" transform="translate(-0.5 0.001)"/>
    <path id="Path_5078" data-name="Path 5078" d="M140.386,266.875l-8.54-8.539-1.006,1.006,8.539,8.54Zm0,0" transform="translate(-119.245 -235.356)" fill="#97144d"/>
    <path id="Path_5079" data-name="Path 5079" d="M194.635,320a2.135,2.135,0,1,1-2.135,2.135A2.135,2.135,0,0,1,194.635,320Zm0,2.847a.712.712,0,1,0-.712-.712A.711.711,0,0,0,194.635,322.843Zm0,0" transform="translate(-181.114 -291.532)" fill="#97144d"/>
    <path id="Path_5080" data-name="Path 5080" d="M130.635,260.266a2.135,2.135,0,1,1,2.135-2.135A2.135,2.135,0,0,1,130.635,260.266Zm0-2.846a.712.712,0,1,0,.712.712A.712.712,0,0,0,130.635,257.419Zm0,0" transform="translate(-111.421 -233.225)" fill="#97144d"/>
    <path id="Path_5081" data-name="Path 5081" d="M82.463,200a9.963,9.963,0,1,1-9.963,9.963A9.962,9.962,0,0,1,82.463,200Zm0,18.5a8.539,8.539,0,1,0-8.539-8.539A8.539,8.539,0,0,0,82.463,218.5Zm0,0" transform="translate(-66.095 -182.206)" fill="#97144d"/>
  </g>
</svg>
