<svg xmlns="http://www.w3.org/2000/svg" width="33.167" height="30.284" viewBox="0 0 33.167 30.284">
  <g id="non_working" transform="translate(0.25 0.25)">
    <path id="Path_5110" data-name="Path 5110" d="M196.657,60.882h4.8V58.961a.961.961,0,0,1,1.922,0v1.922h2.4a2.882,2.882,0,0,1,2.882,2.882V84.9a2.882,2.882,0,0,1-2.882,2.882h-26.9A2.882,2.882,0,0,1,176,84.9V63.765a2.882,2.882,0,0,1,2.882-2.882h2.4V58.961a.961.961,0,1,1,1.922,0v1.922h4.8V58.961a.961.961,0,1,1,1.922,0v1.922h4.8V58.961a.961.961,0,0,1,1.922,0Zm0,1.922v1.922a.961.961,0,0,1-1.922,0V62.8h-4.8v1.922a.961.961,0,1,1-1.922,0V62.8h-4.8v1.922a.961.961,0,1,1-1.922,0V62.8h-2.4a.961.961,0,0,0-.961.961V84.9a.961.961,0,0,0,.961.961h26.9a.961.961,0,0,0,.961-.961V63.765a.961.961,0,0,0-.961-.961h-2.4v1.922a.961.961,0,1,1-1.922,0V62.8Zm2.4,4.324H202.9a1.922,1.922,0,0,1,1.922,1.922v3.843a1.922,1.922,0,0,1-1.922,1.922h-3.843a1.922,1.922,0,0,1-1.922-1.922V69.049A1.922,1.922,0,0,1,199.059,67.127Zm0,1.922v3.843H202.9V69.049Z" transform="translate(-176 -58)" stroke="#fff" stroke-width="0.5"/>
  </g>
</svg>
