<svg xmlns="http://www.w3.org/2000/svg" width="32" height="36.482" viewBox="0 0 32 36.482">
  <g id="humanity" transform="translate(-31.454 0)">
    <path id="Path_5122" data-name="Path 5122" d="M51.943,21.008c-.073,0-.151.006-.236.006a3.183,3.183,0,0,0-2.2.933,3.043,3.043,0,0,0-.9,2.165A3.1,3.1,0,0,0,51.7,27.207h3.5a.534.534,0,0,1,0,1.069H51.7a4.15,4.15,0,0,1-2.949-7.084,4.245,4.245,0,0,1,2.284-1.182,1.82,1.82,0,0,1-.388-1.125V16.759a1.833,1.833,0,0,1,1.693-1.826,1.871,1.871,0,0,1-.018-.263v-1.4A1.269,1.269,0,0,1,53.587,12h1.887a.534.534,0,0,1,.533.535V14.67a1.872,1.872,0,0,1-.018.263,1.825,1.825,0,0,1,1.155.531,1.956,1.956,0,0,1,.335.456,14.95,14.95,0,0,1,1.563-.927,16.075,16.075,0,0,1,1.939-.838A14.945,14.945,0,0,0,49.844,5.742c-.309.923-.654,1.945-.974,2.864-.281.81-.525,1.495-.679,1.889A5.059,5.059,0,0,1,46.9,12.547a3.591,3.591,0,0,1-2.189.826,6.223,6.223,0,0,0-1.042.153.533.533,0,0,1-.263-1.032,7.122,7.122,0,0,1,1.22-.186,2.594,2.594,0,0,0,1.573-.568,4.093,4.093,0,0,0,1-1.634c.166-.424.4-1.089.667-1.848.275-.794.6-1.745.9-2.652-.432-.036-.869-.057-1.311-.057a14.994,14.994,0,0,0-3.757.475A14.827,14.827,0,0,0,40.42,7.308a1.846,1.846,0,0,1-.489.873,1.865,1.865,0,0,1-.759.459V11.4a1.834,1.834,0,0,1-1.832,1.832h-.778a1.835,1.835,0,0,1-1.6-.937,14.794,14.794,0,0,0-1.632,3.327c-.069.2-.131.394-.192.594h4.244a3.84,3.84,0,0,0,2.892-1.529c.271-.285.549-.566.838-.832a.534.534,0,0,1,.723.786c-.275.253-.537.517-.794.786a4.787,4.787,0,0,1-3.654,1.858H32.866a15.033,15.033,0,0,0-.343,3.2,14.87,14.87,0,0,0,1.549,6.629H38.6a1.82,1.82,0,0,1-.168-.763V24.222a1.837,1.837,0,0,1,1.693-1.828,1.841,1.841,0,0,1-.018-.261v-1.4a1.269,1.269,0,0,1,1.266-1.266h1.887a.535.535,0,0,1,.535.535v2.135a1.838,1.838,0,0,1-.02.261,1.837,1.837,0,0,1,1.693,1.828v2.127a1.834,1.834,0,0,1-1.3,1.751v1.642a5.69,5.69,0,0,0,.891.824,1.931,1.931,0,0,0,1.1.37,4.245,4.245,0,0,1,1.069.129.532.532,0,1,1-.265,1.03A3.536,3.536,0,0,0,46.154,32a2.946,2.946,0,0,1-1.7-.557c-.109-.077-.216-.158-.317-.242a1.838,1.838,0,0,1-1.8,1.495h-.778a1.834,1.834,0,0,1-1.832-1.832V28.181h-5.07a15.077,15.077,0,0,0,2.238,2.86,14.948,14.948,0,0,0,12.4,4.26c-.053-.137-.1-.271-.153-.4-.117-.3-.218-.559-.3-.743a7.352,7.352,0,0,0-.388-.8.532.532,0,1,1,.925-.527,8.143,8.143,0,0,1,.444.917c.089.208.192.471.309.772.071.182.149.388.234.612a14.9,14.9,0,0,0,7.643-4.088,15.069,15.069,0,0,0,2.181-2.765H57.617a.534.534,0,0,1,0-1.069H60.79a14.977,14.977,0,0,0,.61-12.071,14.84,14.84,0,0,0-1.868.806,13.814,13.814,0,0,0-1.85,1.139v1.8a1.84,1.84,0,0,1-1.3,1.753V23.4a1.834,1.834,0,0,1-1.832,1.83h-.778a1.834,1.834,0,0,1-1.832-1.83Zm-11.285,2.44a2.345,2.345,0,0,1-.4.01.765.765,0,0,0-.763.763v2.127a.765.765,0,0,0,.763.763.533.533,0,0,1,.533.533v3.218a.765.765,0,0,0,.763.763h.778a.765.765,0,0,0,.763-.763V27.646a.533.533,0,0,1,.535-.533.765.765,0,0,0,.761-.763V24.222a.765.765,0,0,0-.761-.763c-.127,0-.283.01-.4,0a1.838,1.838,0,0,1-2.573-.008Zm1.836-.767a.773.773,0,0,0,.228-.547v-1.6H41.371a.2.2,0,0,0-.2.2v1.4a.779.779,0,0,0,.776.776.765.765,0,0,0,.545-.228ZM38.794,2.67a1.892,1.892,0,0,1-.018.263,1.833,1.833,0,0,1,1.693,1.826V6.088A15.738,15.738,0,0,1,43.429,5a16.057,16.057,0,1,1-8.7,5.791V8.639a1.844,1.844,0,0,1-1.3-1.753V4.759a1.837,1.837,0,0,1,1.695-1.826,1.893,1.893,0,0,1-.02-.263v-1.4A1.269,1.269,0,0,1,36.374,0h1.887a.534.534,0,0,1,.533.535Zm-.562,1.323a1.836,1.836,0,0,1-2.571-.008,2.369,2.369,0,0,1-.4.01.765.765,0,0,0-.761.763V6.886a.765.765,0,0,0,.761.763.534.534,0,0,1,.535.533V11.4a.759.759,0,0,0,.224.539.767.767,0,0,0,.539.224h.778A.769.769,0,0,0,38.1,11.4V8.182a.533.533,0,0,1,.533-.533.765.765,0,0,0,.763-.763V4.759A.765.765,0,0,0,38.636,4c-.125,0-.281.01-.4,0ZM37.5,3.218a.773.773,0,0,0,.228-.547v-1.6H36.374a.2.2,0,0,0-.2.2v1.4a.773.773,0,0,0,1.321.547ZM52.874,15.987a2.585,2.585,0,0,1-.4.008.769.769,0,0,0-.763.763v2.127a.767.767,0,0,0,.224.539.759.759,0,0,0,.539.224.534.534,0,0,1,.533.535V23.4a.766.766,0,0,0,.763.762h.778a.765.765,0,0,0,.763-.762V20.184a.535.535,0,0,1,.535-.535.766.766,0,0,0,.762-.763V16.759A.769.769,0,0,0,55.851,16c-.127,0-.283.01-.4,0a1.841,1.841,0,0,1-2.573-.006Zm1.836-.77a.766.766,0,0,0,.228-.547v-1.6H53.587a.2.2,0,0,0-.2.2v1.4a.773.773,0,0,0,1.321.547Z"/>
  </g>
</svg>
