<svg id="Operating_Guideline_onCustomer_Complaints_" data-name="Operating Guideline onCustomer Complaints " xmlns="http://www.w3.org/2000/svg" width="49.184" height="70.889" viewBox="0 0 49.184 70.889">
  <path id="Path_8161" data-name="Path 8161" d="M123.12,0H81.961a4.017,4.017,0,0,0-4.012,4.012v12.3a1.044,1.044,0,0,0,2.088,0V4.012a1.926,1.926,0,0,1,1.924-1.924H123.12a1.926,1.926,0,0,1,1.924,1.924V54.934a1.044,1.044,0,0,0,2.088,0V4.012A4.017,4.017,0,0,0,123.12,0Z" transform="translate(-77.949)"/>
  <path id="Path_8162" data-name="Path 8162" d="M126.088,178.313a1.044,1.044,0,0,0-1.044,1.044V187A2.045,2.045,0,0,1,123,189.048H82.08A2.045,2.045,0,0,1,80.037,187V140.741a1.044,1.044,0,0,0-2.088,0V187a4.136,4.136,0,0,0,4.132,4.132H123A4.136,4.136,0,0,0,127.132,187v-7.647A1.044,1.044,0,0,0,126.088,178.313Z" transform="translate(-77.949 -120.247)"/>
  <path id="Path_8163" data-name="Path 8163" d="M291.748,340.3a1.871,1.871,0,0,0-2.643,0l-3.413,3.413a6.7,6.7,0,1,0,9.469,0Zm2.675,12.144-.738-.738a4.607,4.607,0,0,1-6.516-6.516l3.258-3.258,3.258,3.258a4.613,4.613,0,0,1,0,6.516Z" transform="translate(-255.083 -292.447)"/>
  <path id="Path_8164" data-name="Path 8164" d="M316.023,386.517l-1.454,1.461-.527-.616a1.044,1.044,0,1,0-1.587,1.357l1.263,1.476a1.045,1.045,0,0,0,.754.365h.039a1.044,1.044,0,0,0,.74-.308l2.252-2.264a1.044,1.044,0,1,0-1.48-1.473Z" transform="translate(-279.588 -332.437)"/>
  <path id="Path_8165" data-name="Path 8165" d="M147.12,67.785h6.961a1.044,1.044,0,0,0,0-2.088H147.12a1.044,1.044,0,0,0,0,2.088Z" transform="translate(-136.591 -56.55)"/>
  <path id="Path_8166" data-name="Path 8166" d="M147.12,331.785h6.961a1.044,1.044,0,0,0,0-2.088H147.12a1.044,1.044,0,1,0,0,2.088Z" transform="translate(-136.591 -283.793)"/>
  <path id="Path_8167" data-name="Path 8167" d="M147.12,111.785H176.18a1.044,1.044,0,0,0,0-2.088H147.12a1.044,1.044,0,0,0,0,2.088Z" transform="translate(-136.591 -94.424)"/>
  <path id="Path_8168" data-name="Path 8168" d="M147.12,155.837H176.18a1.044,1.044,0,0,0,0-2.088H147.12a1.044,1.044,0,0,0,0,2.088Z" transform="translate(-136.591 -132.343)"/>
  <path id="Path_8169" data-name="Path 8169" d="M147.12,199.889H176.18a1.044,1.044,0,0,0,0-2.088H147.12a1.044,1.044,0,0,0,0,2.088Z" transform="translate(-136.591 -170.261)" fill="#97144d"/>
  <path id="Path_8170" data-name="Path 8170" d="M147.12,243.941H176.18a1.044,1.044,0,0,0,0-2.088H147.12a1.044,1.044,0,0,0,0,2.088Z" transform="translate(-136.591 -208.18)"/>
  <path id="Path_8171" data-name="Path 8171" d="M147.12,287.993H176.18a1.044,1.044,0,0,0,0-2.088H147.12a1.044,1.044,0,1,0,0,2.088Z" transform="translate(-136.591 -246.099)" fill="#97144d"/>
  <path id="Path_8172" data-name="Path 8172" d="M169.333,375.584a3.779,3.779,0,0,0-3.091,1.6l-.184.262c-.048-.237-.1-.475-.138-.691-.484-2.457-.859-4.125-1.63-4.9a1.424,1.424,0,0,0-1.492-.393c-.809.27-1.338,1.2-1.826,3.225-.284,1.176-.445,2.293-.452,2.34a1.044,1.044,0,0,0,2.067.3,21.224,21.224,0,0,1,.643-2.993c.258.883.5,2.106.64,2.825.448,2.277.634,3.22,1.542,3.45a1.137,1.137,0,0,0,.278.035,1.2,1.2,0,0,0,.924-.45c.3-.359.746-.968,1.336-1.808a1.688,1.688,0,0,1,1.381-.716h3.03a1.044,1.044,0,1,0,0-2.088Z" transform="translate(-149.015 -319.688)" fill="#97144d"/>
</svg>
