<svg xmlns="http://www.w3.org/2000/svg" width="62" height="62" viewBox="0 0 62 62">
  <g id="PNO" transform="translate(-1 -1)">
    <path id="Path_8189" data-name="Path 8189" d="M15,42.408a4.439,4.439,0,0,0-1.3-3.121A4.373,4.373,0,0,0,10.592,38h-.185a4.341,4.341,0,0,0-2.4.719A4.365,4.365,0,0,0,5.592,38H5.408a4.379,4.379,0,0,0-3.119,1.3,4.4,4.4,0,0,0,.294,6.491L8,50.3l5.417-4.515A4.388,4.388,0,0,0,15,42.408Zm-2.863,1.843L8,47.7,3.864,44.252A2.4,2.4,0,0,1,3,42.408,2.422,2.422,0,0,1,3.711,40.7a2.388,2.388,0,0,1,1.7-.7h.185a2.371,2.371,0,0,1,1.665.669l.709.778.745-.744a2.384,2.384,0,0,1,1.7-.7h.185a2.405,2.405,0,0,1,1.544,4.251Z" fill="#97144d"/>
    <circle id="Ellipse_42" data-name="Ellipse 42" cx="1" cy="1" r="1" transform="translate(36 28)" fill="#97144d"/>
    <circle id="Ellipse_43" data-name="Ellipse 43" cx="1" cy="1" r="1" transform="translate(26 28)" fill="#97144d"/>
    <path id="Path_8190" data-name="Path 8190" d="M37.092,33.8l.151-.3L35.455,32.6l-.151.3a3.641,3.641,0,0,1-6.516,0l-.153-.3-1.789.9.151.3a5.642,5.642,0,0,0,10.1,0Z" fill="#97144d"/>
    <path id="Path_8191" data-name="Path 8191" d="M52,33A11.013,11.013,0,0,0,41,44c0,.31.026.618.052.926l-3.2-.752L37.341,41.6A11.085,11.085,0,0,0,42.8,34h.257a5.006,5.006,0,0,0,5-5,4.941,4.941,0,0,0-.679-2.47l.1-.315a28.245,28.245,0,0,0,1.46-6.092A9.989,9.989,0,1,0,43,11a9.86,9.86,0,0,0,.116,1.429A11.837,11.837,0,0,0,29.882,8.7L27,9.731V3a2,2,0,0,0-2-2H3A2,2,0,0,0,1,3V21a2,2,0,0,0,2,2H15.634l.85,3.125.131.523A4.941,4.941,0,0,0,16,29a5.006,5.006,0,0,0,5,5h.2a11.085,11.085,0,0,0,5.461,7.6l-.514,2.573-4.81,1.132A15.938,15.938,0,0,0,9,60.88V63H55V60.88a16.029,16.029,0,0,0-1.187-6.044A10.993,10.993,0,0,0,52,33ZM41.974,47.2l-2.643,3.84-5.353-3.059,3.188-1.913ZM32,49.166l.012-.007,2.643,1.51L33.4,53H30.6l-1.253-2.331,2.643-1.51Zm-4.392,2.5,1.315,2.448-.65,2.166-2.467-3.584Zm2.12,6.726L30.744,55s1.63-.847,2.512,0,1.016,3.388,1.016,3.388L32.474,61h-.948Zm6-2.113-.65-2.166,1.315-2.448,1.8,1.029ZM43.058,32H43c0-.021,0-.041,0-.063V26h.058a3,3,0,0,1,0,6ZM50,11a9.782,9.782,0,0,1,.5-3h5.01A9.8,9.8,0,0,1,56,11a9.782,9.782,0,0,1-.5,3h-5.01A9.8,9.8,0,0,1,50,11Zm1.343-5A15.2,15.2,0,0,1,53,3.5,15,15,0,0,1,54.663,6Zm3.314,10A15.2,15.2,0,0,1,53,18.5,14.936,14.936,0,0,1,51.337,16Zm-4.07,2.625a7.951,7.951,0,0,1-1.752-.817A5.22,5.22,0,0,0,48,16h1.111a16.218,16.218,0,0,0,1.472,2.624Zm4.824,0A16.17,16.17,0,0,0,56.885,16h2.35a8.022,8.022,0,0,1-3.824,2.627Zm5-4.627H57.6a11.341,11.341,0,0,0,0-6h2.815a7.935,7.935,0,0,1,0,6ZM59.235,6h-2.35a16.021,16.021,0,0,0-1.474-2.627A8.022,8.022,0,0,1,59.235,6ZM50.589,3.373A16.1,16.1,0,0,0,49.115,6h-2.35a8.022,8.022,0,0,1,3.824-2.627ZM45.589,8H48.4a11.341,11.341,0,0,0,0,6h-2.8a7.836,7.836,0,0,1-.016-6ZM30.557,10.58A9.857,9.857,0,0,1,41.7,13.849L43.14,15.74h.5A3.338,3.338,0,0,1,47,19.044a21.569,21.569,0,0,1-1.163,5.8A4.961,4.961,0,0,0,43.058,24H43v-.688A5.3,5.3,0,0,0,37.714,18c-4.205,0-6.648,1.525-9.011,3a19.389,19.389,0,0,1-6.817,3H21a4.973,4.973,0,0,0-2.8.862l-1.017-3.8A5.854,5.854,0,0,1,17,19.62a5.994,5.994,0,0,1,3.988-5.608ZM11,17H9V15h2Zm8-4.246a8.028,8.028,0,0,0-2,1.65V7h2ZM15,17H13V11h2ZM3,3H25v7.448l-4,1.435V5H15V9H11v4H7v6h8.049c-.016.207-.049.41-.049.62A7.949,7.949,0,0,0,15.137,21H3ZM21,32a3,3,0,0,1,0-6v5.938c0,.021,0,.041,0,.063h0Zm2-.062V25.8a21.925,21.925,0,0,0,6.762-3.1c2.319-1.448,4.321-2.7,7.952-2.7A3.3,3.3,0,0,1,41,23.313v8.625a9,9,0,1,1-18,0ZM32,43a10.9,10.9,0,0,0,3.466-.571l.415,2.076L32,46.834,28.119,44.5l.415-2.076A10.9,10.9,0,0,0,32,43Zm-5.166,3.066,3.188,1.913-5.353,3.059L22.026,47.2ZM11,60.88a13.929,13.929,0,0,1,9.017-13.072L29.1,61H11ZM53,61H34.9l9.081-13.192A13.93,13.93,0,0,1,53,60.88Zm-.1-8.053c-1.733-3.75-6.639-6.674-9.777-7.511a8.994,8.994,0,1,1,9.777,7.511Z"/>
  </g>
</svg>
