<?xml version="1.0" encoding="utf-8"?>
<!-- Generator: Adobe Illustrator 25.2.2, SVG Export Plug-In . SVG Version: 6.00 Build 0)  -->
<svg version="1.1" id="Layer_1" xmlns="http://www.w3.org/2000/svg" xmlns:xlink="http://www.w3.org/1999/xlink" x="0px" y="0px"
	 viewBox="0 0 24.8 33" style="enable-background:new 0 0 24.8 33;" xml:space="preserve">
<g id="rbi" transform="translate(-24.15 -5.35)">
	<g>
		<path d="M48.9,33c0,1.6-1.3,2.9-2.9,2.9h-4.6c-0.2,0-0.4-0.1-0.5-0.2c-0.1-0.1-0.2-0.3-0.2-0.5s0.1-0.4,0.2-0.5
			c0.1-0.1,0.3-0.2,0.5-0.2H46c0.4,0,0.8-0.2,1.1-0.5c0.3-0.3,0.4-0.7,0.4-1.1l0-2.9c0-3.3-2.2-6.2-5.5-7l-3.2-0.7
			c-0.3-0.1-0.5-0.4-0.6-0.7v-2.3c0-0.2,0.1-0.4,0.3-0.5c1.3-0.9,2.1-2.4,2.3-3.9l0.2-1.2c0.1-0.6,0.1-1.3,0.1-1.9
			c0-0.2,0-0.5,0-0.8C41,9.9,40.5,8.8,39.7,8c-0.9-0.8-2-1.3-3.2-1.3S34.2,7.1,33.4,8c-0.8,0.8-1.4,2-1.4,3.2c0,0.9,0,1.8,0.1,2.7
			l0.1,1.2c0.1,0.8,0.4,1.6,0.8,2.2c0.4,0.7,0.9,1.2,1.5,1.7c0.2,0.1,0.3,0.3,0.3,0.5v2.3c0,0.3-0.2,0.6-0.5,0.7L31,23.2
			c-3.2,0.8-5.5,3.6-5.5,7v2.9c0,0.4,0.2,0.8,0.4,1.1c0.3,0.3,0.7,0.4,1.1,0.4h10.2c0.9,0,1.7-0.7,1.7-1.6c0-0.4-0.2-0.9-0.5-1.1
			c-0.3-0.3-0.8-0.5-1.2-0.5h0V33c0,0.2-0.1,0.4-0.2,0.5c-0.1,0.1-0.3,0.2-0.5,0.2c-0.4,0-0.7-0.3-0.7-0.7v-1.6h0c0,0,0,0,0,0
			c-1.6,0-3-1.3-3-3c0-0.8,0.3-1.6,0.9-2.1c0.6-0.6,1.3-0.9,2.2-0.9h0v-1.8c0-0.2,0.1-0.4,0.2-0.5c0.1-0.1,0.3-0.2,0.5-0.2
			c0.2,0,0.3,0.1,0.5,0.2s0.2,0.3,0.2,0.5v1.7h1.5c0.4,0,0.7,0.3,0.7,0.7c0,0.4-0.3,0.6-0.7,0.7h-2.9c-0.4,0-0.9,0.2-1.2,0.5
			c-0.3,0.3-0.5,0.7-0.5,1.2c0,0.9,0.8,1.6,1.7,1.6c0,0,0,0,0,0h0v-1.6c0-0.4,0.3-0.7,0.7-0.7s0.7,0.3,0.7,0.7v1.6h0
			c0.8,0,1.6,0.3,2.2,0.9c0.6,0.5,0.9,1.3,0.9,2.1c0,1.7-1.4,3-3,3h-0.1v1.8c0,0.2-0.1,0.4-0.2,0.5c-0.1,0.1-0.3,0.2-0.5,0.2h0
			c-0.2,0-0.3-0.1-0.5-0.2c-0.1-0.1-0.2-0.3-0.2-0.5v-1.7H27c-0.8,0-1.5-0.3-2-0.8c-0.5-0.5-0.8-1.3-0.8-2v-2.9c0-4,2.7-7.4,6.6-8.3
			l2.7-0.6v-1.4c-0.6-0.5-1.2-1.1-1.6-1.9c-0.5-0.8-0.8-1.8-1-2.8l-0.2-1.1c-0.1-1-0.2-2-0.1-3c0.1-1.5,0.7-3,1.8-4
			c1.1-1.1,2.6-1.7,4.1-1.7c1.5,0,3,0.6,4.1,1.7c1.1,1.1,1.8,2.5,1.9,4c0,0.3,0,0.6,0,0.9c0,0.7,0,1.5-0.1,2.1l-0.2,1.1
			c-0.2,1.8-1.1,3.5-2.5,4.6v1.4l2.7,0.6c3.9,0.9,6.6,4.3,6.6,8.3L48.9,33z"/>
	</g>
</g>
</svg>
