<svg id="_008---IT-Request" data-name="008---IT-Request" xmlns="http://www.w3.org/2000/svg" width="41.482" height="41.51" viewBox="0 0 41.482 41.51">
  <path id="Shape" d="M36.01,9.872a.691.691,0,0,0-1.128-.219l-3.477,3.495h-2v-2.02l3.479-3.5A.691.691,0,0,0,32.664,6.5a6.319,6.319,0,0,0-8.435,7.871l-.409.415-3.055-3.074.011-.011a.691.691,0,0,0-.064-1.033L16.243,7.176a.691.691,0,0,0-.916.057L13.341,9.227a.691.691,0,0,0-.057.911l3.476,4.494a.691.691,0,0,0,1.043.059l3.052,3.068-7.033,7.068a2.82,2.82,0,0,0,0,3.968,2.765,2.765,0,0,0,3.958,0l6.036-6.063,6.41,6.437a3.484,3.484,0,0,0,4.948,0,3.526,3.526,0,0,0,0-4.963l-5.539-5.569A6.32,6.32,0,0,0,36.01,9.872ZM18.294,13.225a.7.7,0,0,0-.919-.057L14.748,9.776l1.126-1.131,3.375,2.638a.708.708,0,0,0-.057.106.463.463,0,0,0-.081.257c-.045.449-.043.324,3.727,4.121L21.829,16.78ZM16.8,27.823a1.419,1.419,0,0,1-2-2.017c5.08-5.109-4.851,4.877,9.451-9.5.009-.007.013-.019.021-.026.158-.138-.379.4,1.244-1.244a.691.691,0,0,0,.146-.755,4.95,4.95,0,0,1,5.429-6.808l-2.87,2.888a.691.691,0,0,0-.2.487v2.993a.691.691,0,0,0,.691.691h2.977a.691.691,0,0,0,.49-.2l2.864-2.878A4.935,4.935,0,0,1,28.281,16.9a.691.691,0,0,0-.76.149l-1.215,1.222c-1.477,1.483-3.055,3.063-2.983,2.99-.666.669,2.419-2.429-6.523,6.56Zm17.394.374a2.156,2.156,0,0,1-2.987,0l-6.414-6.442,3-3.01,6.405,6.439a2.143,2.143,0,0,1,0,3.009Z" transform="translate(-4.014 -1.853)" fill="#97144d"/>
  <path id="Shape-2" data-name="Shape" d="M36.642,0H4.84A4.845,4.845,0,0,0,0,4.84V28.346a4.845,4.845,0,0,0,4.84,4.84h6.94A7.616,7.616,0,0,1,9.3,39.047a1.383,1.383,0,0,0,.946,2.461c3.422-.234,9.3-1.652,11.029-8.323H36.642a4.845,4.845,0,0,0,4.84-4.84V4.84A4.845,4.845,0,0,0,36.642,0ZM40.1,28.346A3.461,3.461,0,0,1,36.642,31.8c-16.8,0-15.905-.022-16.109.041a.665.665,0,0,0-.39.319c-.028.049-.081.186-.081.186-1.341,6.269-6.788,7.565-9.89,7.767,3.457-2.835,2.98-7.5,2.959-7.7,0-.008-.057-.195-.069-.224a1.1,1.1,0,0,0-.156-.207c-.276-.253.1-.184-8.067-.184a3.461,3.461,0,0,1-3.457-3.457V4.84A3.461,3.461,0,0,1,4.84,1.383h31.8A3.461,3.461,0,0,1,40.1,4.84Z" fill="#454545"/>
  <path id="Shape-3" data-name="Shape" d="M6.383,4H5.691a.691.691,0,0,0,0,1.383h.691A.691.691,0,1,0,6.383,4Z" transform="translate(-1.543 -1.235)" fill="#454545"/>
  <path id="Shape-4" data-name="Shape" d="M14.84,4.691A.691.691,0,0,0,14.148,4H10.691a.691.691,0,1,0,0,1.383h3.457A.691.691,0,0,0,14.84,4.691Z" transform="translate(-3.086 -1.235)" fill="#454545"/>
  <path id="Shape-5" data-name="Shape" d="M44.383,42h-.691a.691.691,0,0,0,0,1.383h.691a.691.691,0,1,0,0-1.383Z" transform="translate(-13.272 -12.963)" fill="#454545"/>
  <path id="Shape-6" data-name="Shape" d="M52.148,42H48.691a.691.691,0,0,0,0,1.383h3.457a.691.691,0,1,0,0-1.383Z" transform="translate(-14.815 -12.963)" fill="#454545"/>
</svg>
