<?xml version="1.0" encoding="utf-8"?>
<!-- Generator: Adobe Illustrator 25.2.2, SVG Export Plug-In . SVG Version: 6.00 Build 0)  -->
<svg version="1.1" id="Layer_1" xmlns="http://www.w3.org/2000/svg" xmlns:xlink="http://www.w3.org/1999/xlink" x="0px" y="0px"
	 viewBox="0 0 933 933" style="enable-background:new 0 0 933 933;" xml:space="preserve">
<style type="text/css">
	.st0{fill:#95184D;}
</style>
<g id="surface1">
	<path d="M249.5,434.8c-34.3,0-62.2,27.8-62.2,62.2c0,34.3,27.8,62.2,62.2,62.2c34.3,0,62.2-27.8,62.2-62.2
		C311.7,462.6,283.8,434.8,249.5,434.8z M249.5,528c-17.2,0-31.1-13.9-31.1-31.1c0-17.2,13.9-31.1,31.1-31.1
		c17.2,0,31.1,13.9,31.1,31.1C280.6,514.1,266.6,528,249.5,528z"/>
	<path d="M649.7,250.4c37.7-72,19.6-160.5-43.3-211.9c-62.9-51.4-153.3-51.4-216.2,0c-62.9,51.4-81,139.9-43.3,211.9
		c-13,1.2-25.9,3.2-38.7,6c-25.1-42.9-71-69.4-120.8-69.5c-8.6,0-15.5,7-15.5,15.5v121.4c-52.5,45-88.5,106.2-102.2,174H16.3
		c-8.6,0-15.5,7-15.5,15.5v124.4c0,8.6,7,15.5,15.5,15.5h61.2c23.4,74.1,73.7,136.9,140.9,176v88.3c0,8.6,7,15.5,15.5,15.5h139.9
		c8.6,0,15.6-7,15.6-15.5v-46.6H607v46.6c0,8.6,7,15.5,15.5,15.5h139.9c8.6,0,15.5-7,15.5-15.5v-88.3
		c87.3-50.4,144.6-140.1,153.9-240.5c1-4.3,1.5-8.8,1.6-13.2v-15.5C933.2,398.8,810.1,264.6,649.7,250.4z M498.2,31.4
		c77.3,0,139.9,62.6,139.9,139.9c0,77.3-62.6,139.9-139.9,139.9c-77.3,0-139.9-62.6-139.9-139.9C358.4,94.1,421,31.5,498.2,31.4z
		 M901.3,583.1c-4,15-18.5,24.7-33.9,22.8c-15.4-1.9-27-14.9-27.2-30.5v-15.5h-31.1v15.5c0,34.3,27.8,62.2,62.2,62.2
		c7.2-0.1,14.4-1.4,21.2-4c-20.2,74-69.9,136.4-137.4,172.7c-5,2.7-8.2,8-8.2,13.7v81.9H638.1v-46.6c0-8.6-7-15.5-15.6-15.5H373.8
		c-8.6,0-15.5,6.9-15.5,15.5v46.6H249.5v-81.9c0-5.7-3.1-11-8.2-13.7c-67.4-36.5-116.9-98.9-137.2-172.8c-1.8-6.8-8-11.5-15-11.4
		H31.8v-93.3h50.7c7.6,0,14.2-5.6,15.4-13.1c10.7-67.8,46.1-129.3,99.2-172.7c3.6-3,5.7-7.4,5.7-12V219.1
		c36.3,5.4,67.4,28.6,83,61.8c3.2,6.8,10.7,10.4,18,8.5c20.5-5.3,41.6-8.4,62.8-9c9.8,11.7,21.1,22.1,33.6,30.8h-57.5v31.1h310.9
		v-31.1h-57.4c12.5-8.7,23.7-19.1,33.5-30.7c151.6,3.9,272.5,127.8,272.7,279.5C902.4,567.7,901.9,575.5,901.3,583.1z"/>
	<path d="M762.7,142.7c1.3,7.5,7.7,13,15.3,13c7.6,0,14.1-5.5,15.3-13c4.2-25.3,24.1-45.2,49.4-49.4c7.5-1.3,13-7.7,13-15.3
		c0-7.6-5.5-14.1-13-15.3c-25.3-4.2-45.2-24.1-49.4-49.4c-1.3-7.5-7.7-13-15.3-13c-7.6,0-14.1,5.5-15.3,13
		c-4.2,25.3-24.1,45.2-49.4,49.4c-7.5,1.3-13,7.7-13,15.3c0,7.6,5.5,14.1,13,15.3C738.6,97.6,758.4,117.4,762.7,142.7z M778,55.8
		c6.1,8.6,13.6,16.1,22.2,22.2c-8.6,6.1-16.1,13.6-22.2,22.2c-6.1-8.6-13.6-16.1-22.2-22.2C764.4,72,771.9,64.4,778,55.8z"/>
	<path class="st0" d="M498.2,123.5c-26.4,0-47.8,21.4-47.8,47.8s21.4,47.8,47.8,47.8c26.4,0,47.8-21.4,47.8-47.8
		S524.6,123.5,498.2,123.5L498.2,123.5z M498.2,78c51.5,0,93.3,41.8,93.3,93.3s-41.8,93.3-93.3,93.3s-93.3-41.8-93.3-93.3
		S446.7,78,498.2,78z"/>
</g>
</svg>
