<svg xmlns="http://www.w3.org/2000/svg" width="38.363" height="36.95" viewBox="0 0 38.363 36.95">
  <g id="Group_1344" data-name="Group 1344" transform="translate(-1144.999 -1593)">
    <g id="smartForm" transform="translate(1129 1569)">
      <path id="Union_13" data-name="Union 13" d="M-1776.082-754.051a1.917,1.917,0,0,1-1.919-1.911v-33.127a1.917,1.917,0,0,1,1.919-1.912h34.526a1.917,1.917,0,0,1,1.919,1.912v33.127a1.917,1.917,0,0,1-1.919,1.911Zm-.64-1.911a.64.64,0,0,0,.64.637h34.526a.64.64,0,0,0,.64-.637v-28.668h-35.806Zm0-33.127v3.185h35.806v-3.185a.639.639,0,0,0-.64-.637h-34.526A.639.639,0,0,0-1776.722-789.089Zm10.23,26.119a.639.639,0,0,1-.64-.637v-5.1a.639.639,0,0,1,.64-.637h15.345a.638.638,0,0,1,.639.637v5.1a.638.638,0,0,1-.639.637Zm.639-1.273h14.067v-3.822h-14.067Zm-.639-6.371a.639.639,0,0,1-.64-.637V-773.8a.639.639,0,0,1,.64-.637h15.345a.638.638,0,0,1,.639.637v2.548a.638.638,0,0,1-.639.637Zm.639-1.274h14.067v-1.273h-14.067Zm-.639-3.822a.638.638,0,0,1-.64-.636V-778.9a.639.639,0,0,1,.64-.637h15.345a.638.638,0,0,1,.639.637v2.549a.637.637,0,0,1-.639.636Zm.639-1.273h14.067v-1.274h-14.067Zm3.837-3.822a.639.639,0,0,1-.64-.637.639.639,0,0,1,.64-.637h6.394a.638.638,0,0,1,.64.637.638.638,0,0,1-.64.637Zm-8.489-7.019c0-.31.336-.561.749-.561s.75.251.75.561-.335.56-.75.56S-1770.5-787.516-1770.5-787.826Zm-2.249,0a.562.562,0,0,1,.563-.561.561.561,0,0,1,.562.561.56.56,0,0,1-.562.56A.561.561,0,0,1-1772.753-787.826Zm-2.624,0a.562.562,0,0,1,.563-.561.562.562,0,0,1,.563.561.561.561,0,0,1-.562.56A.561.561,0,0,1-1775.377-787.826Z" transform="translate(1794 815)"/>
    </g>
    <path id="Path_5201" data-name="Path 5201" d="M225.476,392h-7.558a1.911,1.911,0,1,0,0,3.822h7.558a1.911,1.911,0,1,0,0-3.822Zm0,2.548h-7.558a.637.637,0,1,1,0-1.274h7.558a.637.637,0,1,1,0,1.274Z" transform="translate(942.984 1230.305)" fill="#97144d"/>
  </g>
</svg>
