<svg xmlns="http://www.w3.org/2000/svg" width="71.688" height="69.963" viewBox="0 0 71.688 69.963">
  <g id="speak" transform="translate(0)">
    <path id="Path_5090" data-name="Path 5090" d="M39.992,44.354H60.84a1.042,1.042,0,0,0,0-2.085H39.992a1.042,1.042,0,0,0,0,2.085Z" transform="translate(-33.593 8.429)" fill="#97144d"/>
    <path id="Path_5091" data-name="Path 5091" d="M39.992,81.852H50.416a1.042,1.042,0,0,0,0-2.085H39.992a1.042,1.042,0,0,0,0,2.085Z" transform="translate(-33.593 -24.013)" fill="#97144d"/>
    <path id="Union_2" data-name="Union 2" d="M21.535,55.171a2.1,2.1,0,0,1-2.1-2.1V49.667a2.1,2.1,0,0,1,2.1-2.1h6.6a2.1,2.1,0,0,1,2.1,2.1v.7c6.909-.3,10.37-1.992,10.663-9.2H38.9a1.048,1.048,0,0,1-1.049-1.049V19.858A1.048,1.048,0,0,1,38.9,18.81h1.993a16.776,16.776,0,1,0-33.551,0H9.331a1.048,1.048,0,0,1,1.049,1.049v20.3A1.048,1.048,0,0,1,9.331,41.2H6.291C3.229,41.2,0,39.527,0,34.915V25.059c0-4.09,2.548-5.851,5.243-6.187a18.873,18.873,0,0,1,37.745,0c2.7.336,5.243,2.087,5.243,6.2v9.856c0,4.09-2.548,5.851-5.243,6.187-.346,9.677-6.092,11.05-12.739,11.354v.608a2.1,2.1,0,0,1-2.1,2.1Zm0-2.086h6.616V49.676H21.535ZM39.947,39.108h1.993c1.583,0,4.194-.576,4.194-4.193l.052-9.815c0-3.649-2.642-4.193-4.194-4.193H39.947Zm-37.9-14.08v9.856c0,3.649,2.642,4.193,4.194,4.193H8.283V20.833H6.239C4.655,20.833,2.045,21.41,2.045,25.027Z" transform="translate(23.458)" fill="#171717"/>
    <path id="Path_5092" data-name="Path 5092" d="M4.437,18.541h7.774a.045.045,0,0,1,.039.022L15.571,24.3a1.912,1.912,0,0,0,3.309,0l3.32-5.733a.045.045,0,0,1,.039-.022h7.774a4.04,4.04,0,0,0,4.035-4.035V4.035A4.04,4.04,0,0,0,30.013,0H4.437A4.04,4.04,0,0,0,.4,4.035v.44a1.042,1.042,0,1,0,2.085,0v-.44a1.953,1.953,0,0,1,1.95-1.95H30.013a1.953,1.953,0,0,1,1.95,1.95V14.506a1.953,1.953,0,0,1-1.95,1.95H22.239A2.136,2.136,0,0,0,20.4,17.518l-3.171,5.475-3.171-5.475a2.136,2.136,0,0,0-1.843-1.062H4.437a1.953,1.953,0,0,1-1.95-1.95V9.348a1.042,1.042,0,1,0-2.085,0v5.158a4.04,4.04,0,0,0,4.035,4.035Z" transform="translate(-0.402 44.713)" fill="#97144d"/>
  </g>
</svg>
