<svg id="survey_email" xmlns="http://www.w3.org/2000/svg" width="24" height="18.281" viewBox="0 0 24 18.281">
  <g id="Group_1389" data-name="Group 1389">
    <path id="Path_5242" data-name="Path 5242" d="M21.891,61H2.109A2.113,2.113,0,0,0,0,63.109V77.172a2.113,2.113,0,0,0,2.109,2.109H21.891A2.113,2.113,0,0,0,24,77.172V63.109A2.113,2.113,0,0,0,21.891,61ZM21.6,62.406l-9.555,9.555L2.407,62.406ZM1.406,76.881V63.394l6.772,6.714Zm.994.994L9.177,71.1l2.375,2.354a.7.7,0,0,0,.992,0l2.315-2.315,6.74,6.74Zm20.193-.994-6.74-6.74,6.74-6.74Z" transform="translate(0 -61)" fill="#171717"/>
  </g>
</svg>
