<svg id="survey_chat" xmlns="http://www.w3.org/2000/svg" width="24" height="24" viewBox="0 0 24 24">
  <g id="Group_1382" data-name="Group 1382" transform="translate(4.5 4.5)">
    <g id="Group_1381" data-name="Group 1381">
      <path id="Path_5238" data-name="Path 5238" d="M105.75,96h-9a.75.75,0,0,0,0,1.5h9a.75.75,0,0,0,0-1.5Z" transform="translate(-96 -96)" fill="#97144d"/>
    </g>
  </g>
  <g id="Group_1384" data-name="Group 1384" transform="translate(4.5 7.5)">
    <g id="Group_1383" data-name="Group 1383">
      <path id="Path_5239" data-name="Path 5239" d="M102.75,160h-6a.75.75,0,0,0,0,1.5h6a.75.75,0,1,0,0-1.5Z" transform="translate(-96 -160)" fill="#97144d"/>
    </g>
  </g>
  <g id="Group_1386" data-name="Group 1386">
    <g id="Group_1385" data-name="Group 1385">
      <path id="Path_5240" data-name="Path 5240" d="M16.5,0H3A3,3,0,0,0,0,3V18a.749.749,0,0,0,.432.68.761.761,0,0,0,.318.07.75.75,0,0,0,.48-.174L5.522,15H16.5a3,3,0,0,0,3-3V3A3,3,0,0,0,16.5,0ZM18,12a1.5,1.5,0,0,1-1.5,1.5H5.25a.749.749,0,0,0-.48.174L1.5,16.4V3A1.5,1.5,0,0,1,3,1.5H16.5A1.5,1.5,0,0,1,18,3Z" fill="#171717"/>
    </g>
  </g>
  <g id="Group_1388" data-name="Group 1388" transform="translate(6 6)">
    <g id="Group_1387" data-name="Group 1387">
      <path id="Path_5241" data-name="Path 5241" d="M143,128a.75.75,0,0,0,0,1.5,1.5,1.5,0,0,1,1.5,1.5v12.689l-2.532-2.025a.756.756,0,0,0-.468-.164H131a1.5,1.5,0,0,1-1.5-1.5v-.75a.75.75,0,1,0-1.5,0V140a3,3,0,0,0,3,3h10.236l3.545,2.837A.751.751,0,0,0,146,145.25V131A3,3,0,0,0,143,128Z" transform="translate(-128 -128)" fill="#171717"/>
    </g>
  </g>
</svg>
