<svg id="survey_call" xmlns="http://www.w3.org/2000/svg" width="23.084" height="23.117" viewBox="0 0 23.084 23.117">
  <g id="Group_1380" data-name="Group 1380" transform="translate(0 0)">
    <path id="Path_5235" data-name="Path 5235" d="M18.6,40.389a2.274,2.274,0,0,0-1.649-.756,2.351,2.351,0,0,0-1.669.751l-1.542,1.537c-.127-.068-.254-.132-.376-.2-.176-.088-.342-.171-.483-.259a16.757,16.757,0,0,1-4.015-3.659A9.886,9.886,0,0,1,7.547,35.73c.4-.366.771-.746,1.132-1.112.137-.137.273-.278.41-.415a2.239,2.239,0,0,0,0-3.376L7.756,29.494c-.151-.151-.307-.307-.454-.464-.293-.3-.6-.615-.917-.908a2.31,2.31,0,0,0-1.634-.717,2.39,2.39,0,0,0-1.659.717l-.01.01L1.423,29.807A3.57,3.57,0,0,0,.365,32.075,8.553,8.553,0,0,0,.989,35.7a21.008,21.008,0,0,0,3.732,6.226,22.96,22.96,0,0,0,7.646,5.987,11.912,11.912,0,0,0,4.294,1.269c.1,0,.21.01.307.01a3.676,3.676,0,0,0,2.815-1.21c0-.01.015-.015.02-.024a11.092,11.092,0,0,1,.854-.883c.21-.2.424-.41.634-.629a2.434,2.434,0,0,0,.737-1.688,2.345,2.345,0,0,0-.751-1.674Zm1.747,5.138s0,0,0,0c-.19.2-.385.39-.6.6a12.829,12.829,0,0,0-.942.976,2.352,2.352,0,0,1-1.835.776c-.073,0-.151,0-.224,0a10.582,10.582,0,0,1-3.806-1.142,21.673,21.673,0,0,1-7.2-5.64,19.808,19.808,0,0,1-3.513-5.85,6.966,6.966,0,0,1-.546-3.054,2.24,2.24,0,0,1,.673-1.449L4.019,29.07a1.109,1.109,0,0,1,.742-.346,1.044,1.044,0,0,1,.712.342l.015.015c.3.278.581.566.878.873.151.156.307.312.464.473l1.332,1.332a.931.931,0,0,1,0,1.513c-.141.141-.278.283-.42.42-.41.42-.8.81-1.225,1.19-.01.01-.02.015-.024.024a1,1,0,0,0-.254,1.108l.015.044A10.694,10.694,0,0,0,7.83,38.628l0,0a17.908,17.908,0,0,0,4.333,3.942,6.663,6.663,0,0,0,.6.327c.176.088.342.171.483.259.02.01.039.024.059.034a1.058,1.058,0,0,0,.483.122,1.043,1.043,0,0,0,.742-.337L16.2,41.311a1.1,1.1,0,0,1,.737-.366.994.994,0,0,1,.7.356l.01.01L20.339,44A.965.965,0,0,1,20.344,45.527Z" transform="translate(-0.344 -26.069)" fill="#171717"/>
    <path id="Path_5236" data-name="Path 5236" d="M245.486,87.232a6.279,6.279,0,0,1,5.113,5.113.655.655,0,0,0,.649.546.87.87,0,0,0,.112-.01.659.659,0,0,0,.542-.761,7.593,7.593,0,0,0-6.187-6.187.662.662,0,0,0-.761.537A.652.652,0,0,0,245.486,87.232Z" transform="translate(-233.01 -81.733)" fill="#97144d"/>
    <path id="Path_5237" data-name="Path 5237" d="M259.728,10.2A12.5,12.5,0,0,0,249.54.01a.658.658,0,1,0-.215,1.3,11.167,11.167,0,0,1,9.1,9.1.655.655,0,0,0,.649.546.872.872,0,0,0,.112-.01A.646.646,0,0,0,259.728,10.2Z" transform="translate(-236.654 0)" fill="#97144d"/>
  </g>
</svg>
