<svg xmlns="http://www.w3.org/2000/svg" width="267.998" height="55.847" viewBox="0 0 267.998 55.847">
  <path id="Union_6" data-name="Union 6" d="M10858.011-1435.305h1.209c-.131.057-.26.109-.385.154H10858Zm267.148.154c-.125-.045-.254-.1-.385-.154h1.209l.012.155Zm-265.939-.154c2.107-.921,5.02-3.462,7.205-10.289,3.85-12.03,11.945-36.195,11.945-36.195s1.99-8.052,7.2-9.147l106.793-.062,106.051.061c5.217,1.092,7.207,9.148,7.207,9.148s8.092,24.165,11.947,36.195c2.184,6.825,5.1,9.367,7.2,10.288l-40.645.021-92.965.055Z" transform="translate(-10857.997 1490.997)" fill="#fafafa"/>
</svg>
