<svg id="technical-support" xmlns="http://www.w3.org/2000/svg" width="63.945" height="63.866" viewBox="0 0 63.945 63.866">
  <g id="Group_1250" data-name="Group 1250">
    <path id="Path_5096" data-name="Path 5096" d="M407.088,37.252h-8.173a.937.937,0,0,0,0,1.873h8.173a.937.937,0,0,0,0-1.873Z" transform="translate(-348.274 -32.639)" fill="#97144d"/>
    <path id="Path_5097" data-name="Path 5097" d="M361.753,39.125h1a.937.937,0,1,0,0-1.873h-1a.937.937,0,0,0,0,1.873Z" transform="translate(-315.753 -32.639)" fill="#97144d"/>
    <path id="Path_5098" data-name="Path 5098" d="M361.753,74.357h12.814a.937.937,0,0,0,0-1.873H361.753a.937.937,0,0,0,0,1.873Z" transform="translate(-315.753 -63.47)" fill="#97144d"/>
    <path id="Path_5099" data-name="Path 5099" d="M49.388,80.353a17.108,17.108,0,0,0-3.524-10.378l.174-3.2a3.809,3.809,0,0,0-3.806-4.019H31.977a1.787,1.787,0,0,1-.758-1.459V58.684a10.613,10.613,0,0,0,3.526-3.6h1.813a3.807,3.807,0,0,0,3.8-3.8v-7a3.017,3.017,0,0,0-1.7-2.716v-4.91A4.058,4.058,0,0,0,34.6,32.61H34.5a.116.116,0,0,1-.116-.116,4.058,4.058,0,0,0-4.053-4.053H20.41a8.94,8.94,0,0,0-8.93,8.93v4.2a3.018,3.018,0,0,0-1.7,2.716v3.558a3.022,3.022,0,0,0,3.019,3.019H14a10.519,10.519,0,0,0,3.5,6.746,12.845,12.845,0,0,0,1.414,1.061V61.3a1.789,1.789,0,0,1-.761,1.459H7.907A3.809,3.809,0,0,0,4.1,66.777l.174,3.2A17.108,17.108,0,0,0,.749,80.353v3.528a2.949,2.949,0,0,0,2.2,4.913H47.186a2.949,2.949,0,0,0,2.2-4.913Zm-1.873,0v2.558a2.962,2.962,0,0,0-.328-.019H45.162l.529-9.74a15.22,15.22,0,0,1,1.824,7.2ZM38.391,43.832a1.14,1.14,0,0,1,.1.457v3.558a1.147,1.147,0,0,1-1.145,1.145H36.228V45.462l.577-.2A2.76,2.76,0,0,0,38.391,43.832ZM32.138,54.685H29.787a.687.687,0,1,1,0-1.374h2.351a.687.687,0,0,1,0,1.374Zm4.42-1.47h-.947a11.025,11.025,0,0,0,.542-2.349h1.189a3,3,0,0,0,1.145-.226v.645A1.932,1.932,0,0,1,36.558,53.215Zm-23.2-15.843a7.065,7.065,0,0,1,7.057-7.057h9.92a2.183,2.183,0,0,1,2.18,2.18A1.992,1.992,0,0,0,34.5,34.484H34.6a2.183,2.183,0,0,1,2.18,2.18v5.99a.888.888,0,0,1-.6.837l-1.968.686a.121.121,0,0,1-.161-.115l0-3.722c.011-2.717-2.532-5.086-6.1-3.941a9.957,9.957,0,0,1-5.8,0c-3.527-1.134-6.108,1.194-6.1,3.938l0,3.725a.121.121,0,0,1-.161.115l-1.969-.686a.887.887,0,0,1-.6-.837V37.371Zm-1.7,10.476V44.29a1.14,1.14,0,0,1,.1-.457,2.76,2.76,0,0,0,1.586,1.429l.577.2v3.531H12.8a1.147,1.147,0,0,1-1.146-1.145Zm4.15,1.937c-.031-1.231-.012-2.539-.017-3.735.058,0,.116.008.173.008a2,2,0,0,0,2-2l0-3.728c-.006-1.521,1.358-2.886,3.65-2.15a11.792,11.792,0,0,0,6.943,0c2.183-.7,3.656.534,3.65,2.153l0,3.725a1.994,1.994,0,0,0,2.168,1.989V49.86a9.24,9.24,0,0,1-.387,2.351,2.552,2.552,0,0,0-1.831-.774H29.787a2.561,2.561,0,1,0,0,5.121h1.19a9.586,9.586,0,0,1-5.859,2.09A9.184,9.184,0,0,1,15.8,49.784ZM20.791,61.3V59.661a11.417,11.417,0,0,0,4.324.862h.021a11.43,11.43,0,0,0,4.21-.854V61.3a3.655,3.655,0,0,0,.3,1.459H20.486a3.646,3.646,0,0,0,.305-1.459ZM4.446,73.153l.148,2.725a.937.937,0,1,0,1.871-.1l-.494-9.1a1.937,1.937,0,0,1,1.936-2.044H42.23a1.937,1.937,0,0,1,1.936,2.044l-.88,16.217H28.6a5.753,5.753,0,0,1,1.4-2.9l.027-.03a6.655,6.655,0,0,0-1.678-10.215,1.428,1.428,0,0,0-2.135,1.24v4.25a.354.354,0,0,1-.353.353H24.276a.354.354,0,0,1-.353-.353v-4.25a1.428,1.428,0,0,0-2.135-1.24,6.655,6.655,0,0,0-1.675,10.218l.024.027a5.752,5.752,0,0,1,1.4,2.9H6.851L6.7,80.124a.937.937,0,1,0-1.871.1l.145,2.668H2.951a2.994,2.994,0,0,0-.328.019V80.353a15.222,15.222,0,0,1,1.824-7.2Zm18.986,9.74a7.616,7.616,0,0,0-1.9-4.154l-.023-.025a4.778,4.778,0,0,1,.543-6.882v3.405a2.229,2.229,0,0,0,2.227,2.227h1.586a2.229,2.229,0,0,0,2.227-2.227V71.832a4.778,4.778,0,0,1,.541,6.884l-.02.023a7.616,7.616,0,0,0-1.9,4.154Zm23.754,4.028H2.951a1.077,1.077,0,1,1,0-2.155H47.186a1.077,1.077,0,1,1,0,2.155Z" transform="translate(0 -24.928)"/>
    <path id="Path_5100" data-name="Path 5100" d="M349.374,6.723a.937.937,0,0,0,.937-.937V3.974A3.665,3.665,0,0,0,346.65.313H330.9a3.665,3.665,0,0,0-3.661,3.661v7.879a3.665,3.665,0,0,0,3.661,3.661.655.655,0,0,1,.654.654v4.873a1.547,1.547,0,0,0,2.873.8l3.6-6a.658.658,0,0,1,.561-.318h8.065a3.665,3.665,0,0,0,3.661-3.661V10.166a.937.937,0,0,0-1.873,0v1.687a1.789,1.789,0,0,1-1.787,1.787h-8.065a2.54,2.54,0,0,0-2.168,1.228l-2.994,4.992V16.168A2.53,2.53,0,0,0,330.9,13.64a1.789,1.789,0,0,1-1.787-1.787V3.974A1.789,1.789,0,0,1,330.9,2.186H346.65a1.789,1.789,0,0,1,1.787,1.787V5.787a.937.937,0,0,0,.937.937Z" transform="translate(-286.366 -0.313)" fill="#97144d"/>
  </g>
</svg>
