<svg id="TurnAroundTime" xmlns="http://www.w3.org/2000/svg" width="70.889" height="70.889" viewBox="0 0 70.889 70.889">
  <g id="XMLID_971_">
    <g id="XMLID_977_">
      <path id="XMLID_1030_" d="M63.325,13.56h2.19a1.384,1.384,0,0,0,0-2.767H60.258a1.384,1.384,0,0,0-1.384,1.384v5.258a1.384,1.384,0,1,0,2.767,0V15.912a32.677,32.677,0,1,1-26.2-13.144,33.17,33.17,0,0,1,3.987.24A1.384,1.384,0,0,0,39.765.261,35.948,35.948,0,0,0,35.444,0,35.444,35.444,0,0,0,10.381,60.507,35.444,35.444,0,0,0,63.325,13.56Z" fill="#97144d"/>
      <path id="XMLID_1029_" d="M71.169,77.056a1.384,1.384,0,0,0-1.909.429,26.42,26.42,0,1,0,8.27-8.253A1.384,1.384,0,1,0,79,71.573a23.663,23.663,0,1,1-4.13,36.763A23.813,23.813,0,0,1,71.6,78.965,1.384,1.384,0,0,0,71.169,77.056Z" transform="translate(-56.16 -56.161)"/>
      <path id="XMLID_1028_" d="M377.553,249.1h1.706a1.384,1.384,0,0,0,0-2.767h-1.706a1.384,1.384,0,0,0,0,2.767Z" transform="translate(-324.121 -212.247)"/>
      <path id="XMLID_1004_" d="M103.835,247.39a1.384,1.384,0,0,0,1.384,1.384h1.706a1.384,1.384,0,0,0,0-2.767h-1.706A1.384,1.384,0,0,0,103.835,247.39Z" transform="translate(-89.468 -211.968)"/>
      <path id="XMLID_1001_" d="M249.1,106.925v-1.706a1.384,1.384,0,0,0-2.767,0v1.706a1.384,1.384,0,0,0,2.767,0Z" transform="translate(-212.247 -89.468)"/>
      <path id="XMLID_1415_" d="M246.006,377.553v1.706a1.384,1.384,0,0,0,2.767,0v-1.706a1.384,1.384,0,0,0-2.767,0Z" transform="translate(-211.968 -324.121)"/>
      <path id="XMLID_996_" d="M191.334,159.659a1.384,1.384,0,0,0-1.957,1.957l4.689,4.689a4.767,4.767,0,1,0,8.406,0l9.462-9.462a1.384,1.384,0,1,0-1.957-1.957l-9.462,9.462a4.757,4.757,0,0,0-4.492,0Zm8.935,8.892a2,2,0,1,1-2-2A2,2,0,0,1,200.269,168.551Z" transform="translate(-162.825 -133.106)"/>
      <path id="XMLID_980_" d="M120.54,120.54a1.383,1.383,0,1,0-.978.405A1.39,1.39,0,0,0,120.54,120.54Z" transform="translate(-101.826 -101.826)"/>
      <path id="XMLID_979_" d="M316.822,12.645a1.384,1.384,0,1,0-.978-.405A1.389,1.389,0,0,0,316.822,12.645Z" transform="translate(-271.793 -8.511)"/>
    </g>
  </g>
</svg>
