<svg id="write_here" xmlns="http://www.w3.org/2000/svg" width="38.987" height="38.987" viewBox="0 0 38.987 38.987">
  <g id="Group_1353" data-name="Group 1353" transform="translate(0 0)">
    <path id="Path_4362" data-name="Path 4362" d="M38.981,14.909a.614.614,0,0,0-.027-.132.65.65,0,0,0-.037-.112.583.583,0,0,0-.065-.1.613.613,0,0,0-.086-.1c-.01-.009-.015-.021-.026-.031L32.49,9.581V4.551A1.95,1.95,0,0,0,30.541,2.6H23.5L20.679.412a1.927,1.927,0,0,0-2.37,0L15.489,2.6H8.447A1.949,1.949,0,0,0,6.5,4.551v5.03L.25,14.434c-.011.009-.016.021-.026.031a.61.61,0,0,0-.086.1.58.58,0,0,0-.065.1.641.641,0,0,0-.037.112.616.616,0,0,0-.027.13c0,.014-.008.025-.008.039v22.1a1.928,1.928,0,0,0,.381,1.147c0,.006,0,.013.009.018s.014.011.021.018a1.94,1.94,0,0,0,1.536.766h35.09a1.94,1.94,0,0,0,1.541-.769c.005-.006.013-.008.018-.015s.005-.012.009-.018a1.928,1.928,0,0,0,.381-1.147V14.948C38.988,14.934,38.981,14.922,38.981,14.909ZM19.1,1.437a.623.623,0,0,1,.775,0l1.5,1.164H17.609ZM2.112,37.692,19.1,24.493a.624.624,0,0,1,.775,0l17,13.2Zm35.577-1.013L20.679,23.468a1.928,1.928,0,0,0-2.37,0L1.3,36.679V15.937l10.649,8.269a.65.65,0,0,0,.8-1.027l-10.818-8.4L6.5,11.226v5.021a.65.65,0,0,0,1.3,0V4.551a.65.65,0,0,1,.65-.65H30.541a.65.65,0,0,1,.65.65v11.7a.65.65,0,0,0,1.3,0V11.226l4.572,3.553L26.224,23.194a.65.65,0,1,0,.8,1.027l10.667-8.283V36.679Z" transform="translate(-0.001 -0.004)"/>
    <path id="Path_4363" data-name="Path 4363" d="M169.17,78.634v-2.6a7.8,7.8,0,1,0-7.8,7.8.65.65,0,1,0,0-1.3,6.5,6.5,0,1,1,6.5-6.5v2.6a1.3,1.3,0,1,1-2.6,0v-2.6a.65.65,0,1,0-1.3,0,2.6,2.6,0,1,1-2.6-2.6.65.65,0,0,0,0-1.3A3.9,3.9,0,1,0,164,78.908a2.592,2.592,0,0,0,5.171-.274Z" transform="translate(-141.879 -63.041)" fill="#97144d"/>
  </g>
</svg>
