<svg xmlns="http://www.w3.org/2000/svg" width="56.79" height="36.69" viewBox="0 0 56.79 36.69">
  <g id="car" transform="translate(-1020.31 -498.37)">
    <g id="Group_1371" data-name="Group 1371">
      <path id="Path_5220" data-name="Path 5220" d="M1026.19,526.95c0,.03-.01.05-.01.08l-.01.14c0-.02.01-.03.01-.05l.02-.16Zm-.76-1.28a2.827,2.827,0,0,0-.07.28,2.311,2.311,0,0,1,.08-.28c.02-.06.03-.12.05-.19A1.417,1.417,0,0,0,1025.43,525.67Zm-.25,1.26-.02.2.01.01a.17.17,0,0,0,.01-.07,1.025,1.025,0,0,1,.02-.2,1.4,1.4,0,0,1,.02-.18A1.953,1.953,0,0,0,1025.18,526.93Z" fill="#97144d"/>
    </g>
    <g id="Group_1372" data-name="Group 1372">
      <path id="Path_5221" data-name="Path 5221" d="M1070.28,526.42c.04.21.07.41.09.62A5.451,5.451,0,0,0,1070.28,526.42Z" fill="#97144d"/>
    </g>
    <g id="Group_1373" data-name="Group 1373">
      <path id="Path_5222" data-name="Path 5222" d="M1026.14,527.71a6.346,6.346,0,0,0,.13,1.29A7.136,7.136,0,0,1,1026.14,527.71Zm10.89-4.46-.02-.01a1.139,1.139,0,0,1,.11.11C1037.09,523.32,1037.06,523.28,1037.03,523.25Zm1.35,2.06a.235.235,0,0,0,.02.08,3.612,3.612,0,0,1,.13.35A4.176,4.176,0,0,0,1038.38,525.31Zm-1.35-2.06-.02-.01a1.139,1.139,0,0,1,.11.11C1037.09,523.32,1037.06,523.28,1037.03,523.25Zm-2.16-2.54h-.11a.7.7,0,0,1,.19.06Zm-.23-.08h-.14l.1.03.11.03Zm-7.38,1.92c-.09.09-.17.17-.25.26l.26-.26Z" fill="#97144d"/>
      <path id="Path_5223" data-name="Path 5223" d="M1032.5,524.43a3.282,3.282,0,0,0-3.28,3.28,3.356,3.356,0,0,0,.44,1.64,3.28,3.28,0,0,0,5.67,0,3.384,3.384,0,0,0,.44-1.64A3.279,3.279,0,0,0,1032.5,524.43Zm1.96,4.42a2.275,2.275,0,0,1-4.24-1.14,2.275,2.275,0,1,1,4.24,1.14Z" fill="#97144d"/>
      <path id="Path_5224" data-name="Path 5224" d="M1064.06,524.43a3.282,3.282,0,0,0-3.28,3.28,3.356,3.356,0,0,0,.44,1.64,3.28,3.28,0,0,0,5.67,0,3.384,3.384,0,0,0,.44-1.64A3.28,3.28,0,0,0,1064.06,524.43Zm1.96,4.42a2.275,2.275,0,0,1-4.24-1.14,2.275,2.275,0,1,1,4.24,1.14Z" fill="#97144d"/>
      <path id="Path_5231" data-name="Path 5231" d="M1.75.129a2.1,2.1,0,1,1-2.1,2.1A2.1,2.1,0,0,1,1.75.129Z" transform="translate(1062.31 525.455)" fill="#97144d"/>
    </g>
    <g id="Group_1374" data-name="Group 1374">
      <path id="Path_5225" data-name="Path 5225" d="M1028.99,521.2l-.09.09a1.746,1.746,0,0,1,.19-.1Zm6.55.94.05.03h.02A.212.212,0,0,0,1035.54,522.14Zm-6.55-.94-.09.09a1.746,1.746,0,0,1,.19-.1Zm0,0-.09.09a1.746,1.746,0,0,1,.19-.1Zm0,0-.09.09a1.746,1.746,0,0,1,.19-.1Zm-7.43-5.01v.01l.01-.01Zm7.43,5.01-.09.09a1.746,1.746,0,0,1,.19-.1Zm0,0-.09.09a1.746,1.746,0,0,1,.19-.1Z" fill="#97144d"/>
      <path id="Path_5226" data-name="Path 5226" d="M1069.59,511.55c-2.77-7.9-10.59-13.18-19.57-13.18s-16.8,5.28-19.57,13.18h-3.91a6.2,6.2,0,0,0-5.65,3.62,3.1,3.1,0,0,0-.14.32l-.02.06-.01.04a5.959,5.959,0,0,0-.41,2.19V529.6h5.09a7.34,7.34,0,0,0,14.19,0h17.37a7.346,7.346,0,0,0,14.2,0h5.94V519.07A7.535,7.535,0,0,0,1069.59,511.55Zm-48.28,6.23a4.844,4.844,0,0,1,.25-1.58v-.01h.02a.06.06,0,0,1,.04.01.839.839,0,0,1,.15.04.037.037,0,0,1,.03.01.334.334,0,0,1,.15.05.434.434,0,0,1,.12.05c.01,0,.01.01.02.01a.425.425,0,0,1,.17.1.037.037,0,0,1,.03.01.1.1,0,0,1,.05.04.726.726,0,0,1,.22.18.1.1,0,0,1,.05.04c.01.01.01.01.01.02a.3.3,0,0,1,.08.08c.02.03.04.05.06.08a.445.445,0,0,1,.08.11.388.388,0,0,1,.06.11.01.01,0,0,1,.01.01l.09.18a1.684,1.684,0,0,1,.09.32c.01.03.01.06.02.09a2.456,2.456,0,0,1,.02.28,1.426,1.426,0,0,1-.03.29.432.432,0,0,1-.01.05v.04a.809.809,0,0,1-.07.22.037.037,0,0,1-.01.03.5.5,0,0,1-.05.13,2.146,2.146,0,0,1-.14.26,1.409,1.409,0,0,1-.14.18l-.09.09a1.61,1.61,0,0,1-.57.39,1.349,1.349,0,0,1-.24.08h-.02a.47.47,0,0,1-.16.04,1.426,1.426,0,0,1-.29.03v-2.06Zm4.43,7.04-.05.11c-.05.14-.11.27-.14.37a.635.635,0,0,0-.06.18c-.02.07-.03.13-.05.19a2.265,2.265,0,0,0-.08.28c-.02.1-.05.21-.08.34l-.03.18a1.919,1.919,0,0,0-.03.22,1.4,1.4,0,0,0-.02.18,1.025,1.025,0,0,0-.02.2.17.17,0,0,1-.01.07v.07a4.189,4.189,0,0,0-.03.5c0,.13,0,.25.01.37s.02.25.03.37a.757.757,0,0,0,.01.15h-3.88v-3.79h4.43v.01Zm12.98,4.18a6.355,6.355,0,0,1-12.58-1.29c0-.15.01-.29.02-.44,0-.03.01-.07.01-.1l.01-.14c0-.03.01-.05.01-.08a3.381,3.381,0,0,1,.06-.41c.01-.03.01-.06.02-.1l.12-.48c.01-.01.01-.01.01-.02a3.109,3.109,0,0,1,.09-.3,3.176,3.176,0,0,1,.15-.37l.05-.12v-.01c.05-.11.1-.21.14-.32l.01-.01.09-.16.05-.08.01-.02a.68.68,0,0,1,.07-.11v-.01c.04-.06.07-.12.12-.19a.236.236,0,0,1,.06-.09.574.574,0,0,1,.04-.07.905.905,0,0,0,.11-.16.1.1,0,0,0,.04-.05,3.558,3.558,0,0,1,.26-.31,3.916,3.916,0,0,1,.28-.31l.15-.14a.467.467,0,0,1,.07-.07,1.371,1.371,0,0,1,.18-.16c.07-.06.14-.12.21-.17.01-.02.03-.03.04-.04a3.157,3.157,0,0,1,.27-.2l.04-.03.04-.03c.02-.01.03-.02.05-.03q.165-.105.36-.21l.13-.07a4.481,4.481,0,0,1,.49-.24,3.247,3.247,0,0,1,.51-.19c.03-.01.05-.02.09-.03s.07-.02.12-.04c.16-.05.32-.08.5-.12a4.115,4.115,0,0,1,.64-.09,4.642,4.642,0,0,1,1.29,0,5.021,5.021,0,0,1,.63.09c.18.04.35.08.54.14.12.04.23.07.35.12a.835.835,0,0,1,.2.08.938.938,0,0,1,.15.06,2.3,2.3,0,0,1,.23.1c.06.04.12.07.19.11a.469.469,0,0,1,.1.05.21.21,0,0,1,.07.03c.01,0,.01.01.02.01.11.06.23.13.35.21.01.01.02.01.03.02l.05.04c.02.02.05.03.07.05.13.09.26.19.41.31.13.11.26.23.39.35l.08.08.02.01c.03.03.06.07.09.1.09.1.17.2.27.31l.01.01c.11.14.21.28.31.43.05.07.1.15.15.23a2.127,2.127,0,0,1,.16.25l.05.09a.7.7,0,0,0,.07.13c.06.11.11.24.18.39l.06.12a4.176,4.176,0,0,1,.15.43,1.544,1.544,0,0,1,.07.21l.06.24a1.892,1.892,0,0,1,.05.23c.02.1.04.21.06.32a1.247,1.247,0,0,1,.02.21.585.585,0,0,1,.02.13v.04c.01.05.01.1.02.15.01.14.02.29.02.44A6.4,6.4,0,0,1,1038.72,529Zm31.56,0a6.35,6.35,0,0,1-12.57-1.29,4.881,4.881,0,0,1,.03-.54l.01-.14a5.035,5.035,0,0,1,.09-.59c.04-.17.07-.33.12-.5.03-.09.05-.18.1-.3a2.975,2.975,0,0,1,.14-.37l.06-.12a3.429,3.429,0,0,1,.28-.58l.08-.12v-.02a3.23,3.23,0,0,1,.18-.28,5.88,5.88,0,0,1,.73-.9l.13-.12a6.9,6.9,0,0,1,.79-.66c.03-.02.06-.04.14-.09a5.576,5.576,0,0,1,.56-.32c.12-.06.24-.12.4-.19a1.18,1.18,0,0,1,.18-.08,3.573,3.573,0,0,1,.36-.13,6.481,6.481,0,0,1,.7-.18,4.115,4.115,0,0,1,.64-.09,4.64,4.64,0,0,1,1.29,0,4.967,4.967,0,0,1,.67.1c.12.03.25.06.38.09l.14.05.09.03.17.06a1.3,1.3,0,0,1,.27.1l.15.06c.13.06.25.12.41.21a2.917,2.917,0,0,1,.54.3.92.92,0,0,1,.15.11,6.042,6.042,0,0,1,1.59,1.6c.1.15.2.3.29.46l.14.25a2.626,2.626,0,0,1,.19.41c.02.04.04.1.07.17a5.678,5.678,0,0,1,.31,1.03,5.424,5.424,0,0,1,.09.62.06.06,0,0,1,.01.04v.09a4.881,4.881,0,0,1,.03.54A6.383,6.383,0,0,1,1070.28,529Zm5.82-.4h-4.74c0-.05.01-.09.01-.14.01-.12.03-.25.03-.38s.01-.24.01-.37c0-.16-.01-.32-.02-.47,0-.05-.01-.1-.01-.15a.618.618,0,0,0-.01-.15c-.02-.23-.07-.47-.11-.71a6.069,6.069,0,0,0-.36-1.2,1.9,1.9,0,0,0-.09-.22h5.29v3.79Zm0-4.79h-5.82c-.06-.09-.11-.18-.17-.27a7.03,7.03,0,0,0-1.81-1.84c-.09-.06-.17-.12-.23-.16a3.809,3.809,0,0,0-.61-.34,2.464,2.464,0,0,0-.46-.23.836.836,0,0,0-.16-.07c-.11-.05-.22-.09-.33-.13l-.08-.06h-.11c-.02,0-.03-.01-.05-.02l-.07-.06h-.13c-.16-.05-.32-.08-.52-.13a6.28,6.28,0,0,0-.72-.11,6.351,6.351,0,0,0-1.51,0,5.1,5.1,0,0,0-.73.11,5.463,5.463,0,0,0-.8.21,2.609,2.609,0,0,0-.41.15,1.16,1.16,0,0,0-.24.1,2.263,2.263,0,0,0-.44.21,4.71,4.71,0,0,0-.7.4,1.485,1.485,0,0,0-.15.11,6.076,6.076,0,0,0-.83.69.633.633,0,0,0-.19.18,5.849,5.849,0,0,0-.85,1.03,1.885,1.885,0,0,0-.16.23h-3.41v1h2.9v.01l-.05.11a3.721,3.721,0,0,0-.14.37,2.651,2.651,0,0,0-.12.37c-.05.18-.1.36-.15.62-.04.22-.08.44-.09.58a1.025,1.025,0,0,0-.02.2c-.02.2-.03.42-.03.64a6.111,6.111,0,0,0,.04.74.757.757,0,0,0,.01.15H1039.8c0-.05.01-.1.01-.14.01-.13.02-.25.03-.38s.01-.25.01-.37c0-.07,0-.13-.02-.41a1.476,1.476,0,0,0-.01-.21l-.01-.15c-.01-.12-.03-.23-.05-.35s-.04-.25-.06-.37c-.03-.14-.07-.28-.12-.45a1.8,1.8,0,0,0-.05-.19c-.01-.02-.01-.04-.02-.06-.01-.04-.03-.08-.04-.11v-.01c-.02-.06-.04-.12-.06-.17a1.2,1.2,0,0,0-.08-.2.5.5,0,0,0-.05-.13.318.318,0,0,0-.03-.09h12.16v-1h-12.7a5.3,5.3,0,0,0-.54-.77,3.732,3.732,0,0,0-.39-.44.835.835,0,0,0-.19-.18c-.14-.14-.28-.27-.41-.38a3.5,3.5,0,0,0-.35-.26.873.873,0,0,1-.1-.08l-.12-.09-.03-.02c-.03-.02-.05-.03-.08-.05a3.19,3.19,0,0,0-.31-.19c-.06-.03-.12-.07-.18-.1l-.15-.08a.354.354,0,0,0-.09-.04.338.338,0,0,0-.12-.06c-.08-.04-.16-.07-.24-.11a3.71,3.71,0,0,0-.46-.19.7.7,0,0,0-.19-.06c-.02-.01-.03-.02-.05-.02l-.11-.03-.1-.03a4.4,4.4,0,0,0-.52-.13l-.04-.01a5.732,5.732,0,0,0-.69-.1,6.269,6.269,0,0,0-1.5,0,5.481,5.481,0,0,0-.74.11,2.216,2.216,0,0,0-.3.07,1.733,1.733,0,0,0-.27.08,1.229,1.229,0,0,0-.25.08.236.236,0,0,1-.08.02c-.08.03-.16.05-.23.08-.11.04-.21.09-.31.13a4.091,4.091,0,0,0-.47.23h-.01a1.734,1.734,0,0,0-.19.1,6.492,6.492,0,0,0-.56.34.267.267,0,0,0-.06.05c-.14.1-.29.21-.43.33-.01,0-.01,0-.02.01a2.7,2.7,0,0,0-.38.35l-.01.01a.667.667,0,0,0-.17.17l-.26.26a7.244,7.244,0,0,0-.75,1h-4.95v-2.97h.07a1.946,1.946,0,0,0,.25-.02,3.4,3.4,0,0,0,.34-.07,1.472,1.472,0,0,0,.28-.08c.09-.03.17-.07.25-.1s.16-.09.24-.13a2.615,2.615,0,0,0,.45-.33l.01-.01a2.58,2.58,0,0,0,.28-.29,2.769,2.769,0,0,0,.31-.45c.04-.08.08-.16.12-.25s.06-.17.09-.26a2.781,2.781,0,0,0,.11-.5c.01-.11.02-.22.02-.34a2.619,2.619,0,0,0-.06-.57c-.02-.09-.04-.17-.06-.26-.04-.11-.08-.22-.13-.33a3.118,3.118,0,0,0-.22-.4c-.05-.07-.09-.13-.14-.19a2.855,2.855,0,0,0-.23-.26,1.291,1.291,0,0,0-.14-.12,1.068,1.068,0,0,0-.11-.09.36.36,0,0,0-.1-.07.884.884,0,0,0-.17-.12c-.01-.01-.02-.01-.03-.02s-.03-.01-.04-.02a2.445,2.445,0,0,0-.28-.14,1.191,1.191,0,0,0-.2-.08l-.21-.06c-.02-.01-.03-.02-.05-.02a5.18,5.18,0,0,1,4.58-2.71h4.63l.12-.34c2.52-7.68,10.05-12.84,18.73-12.84s16.21,5.16,18.74,12.84l.11.34h.7a6.53,6.53,0,0,1,6.53,6.52v4.74Z" fill="#97144d"/>
    </g>
    <g id="Group_1375" data-name="Group 1375" transform="translate(0 -0.586)">
      <path id="Path_5227" data-name="Path 5227" d="M1052.99,503.57v.02a5.577,5.577,0,0,1,.59.09Z" fill="#97144d"/>
      <path id="Path_5228" data-name="Path 5228" d="M1065.71,512.218a18.033,18.033,0,0,0-11.72-8.426c-.07-.021-.13-.031-.2-.052l-.21-.042a5.322,5.322,0,0,0-.59-.095,17.443,17.443,0,0,0-2.97-.252,18.286,18.286,0,0,0-13.59,6,16.651,16.651,0,0,0-2.11,2.868l-.08.126V515.5h31.54v-3.152Zm-30.47,2.227v-1.261a1.577,1.577,0,0,1,1.53-1.608h1.67a3.292,3.292,0,0,1,3.19,2.868Zm7.4,0a4.318,4.318,0,0,0-4.2-3.919h-1.68c.12-.158.26-.315.39-.462a17.482,17.482,0,0,1,15.84-5.411v9.792h-10.35Zm22.14,0h-10.79v-9.593a17.076,17.076,0,0,1,10.79,7.785Z" transform="translate(0 0)" fill="#97144d"/>
    </g>
    <g id="Group_1376" data-name="Group 1376">
      <path id="Path_5229" data-name="Path 5229" d="M1053.79,503.72c.07.02.13.03.2.05v-.02Z" fill="#97144d"/>
    </g>
    <path id="Path_5230" data-name="Path 5230" d="M1041.119,513.735h-5.879v-1.123a1.426,1.426,0,0,1,1.408-1.432h1.536A3,3,0,0,1,1041.119,513.735Z" transform="translate(0.231)" fill="#97144d"/>
  </g>
</svg>
