<svg xmlns="http://www.w3.org/2000/svg" width="35.881" height="35.885" viewBox="0 0 35.881 35.885">
  <g id="Page-1" transform="translate(0 0.008)">
    <g id="_019---ISA" data-name="019---ISA" transform="translate(0 -0.008)">
      <path id="Shape" d="M24.718,17.468a15.5,15.5,0,0,1,6.33.12.6.6,0,1,0,.271-1.165,16.7,16.7,0,0,0-6.826-.13.6.6,0,0,0,.225,1.174Z" transform="translate(-9.655 -7.026)" fill="#97144d"/>
      <path id="Shape-2" data-name="Shape" d="M11.794,24a1.794,1.794,0,1,0,1.794,1.794A1.794,1.794,0,0,0,11.794,24Zm0,2.392a.6.6,0,1,1,.6-.6A.6.6,0,0,1,11.794,26.392Z" transform="translate(-4.02 -10.241)" fill="#97144d"/>
      <path id="Shape-3" data-name="Shape" d="M34.505,13.126a.6.6,0,0,0-.837.858,3.522,3.522,0,0,1,.793,1.085,2.49,2.49,0,0,1,.224,1.046,2.67,2.67,0,0,1-1.017,2.1c-1.409-5.183-6.259-9.289-12.5-10.362a4.186,4.186,0,1,0-6.444,0c-.282.049-.565.1-.842.161a7.894,7.894,0,0,0-7.655-.06,1.642,1.642,0,0,0-.538,2.383l.877,1.23A13.727,13.727,0,0,0,2.8,16.545H2.392A2.392,2.392,0,0,0,0,18.937v3.588a2.4,2.4,0,0,0,2.351,2.392,13.146,13.146,0,0,0,3.12,5.154L6.414,35.4a1.794,1.794,0,0,0,1.767,1.479h2.177a1.794,1.794,0,0,0,1.767-1.48l.208-1.169a18.9,18.9,0,0,0,11.217,0l.208,1.169a1.794,1.794,0,0,0,1.767,1.479H27.7A1.794,1.794,0,0,0,29.466,35.4l.943-5.325a12.591,12.591,0,0,0,3.677-8.742,11.824,11.824,0,0,0-.148-1.86,3.861,3.861,0,0,0,1.942-3.355,3.715,3.715,0,0,0-.327-1.534,4.693,4.693,0,0,0-1.049-1.454ZM17.94,2.193a2.99,2.99,0,1,1-2.99,2.99A2.99,2.99,0,0,1,17.94,2.193ZM29.428,29.364a.593.593,0,0,0-.164.317l-.975,5.506a.6.6,0,0,1-.59.494H25.523a.6.6,0,0,1-.59-.493l-.328-1.854a.6.6,0,0,0-.793-.457,17.563,17.563,0,0,1-11.744,0,.6.6,0,0,0-.793.457l-.328,1.854a.6.6,0,0,1-.59.493H8.181a.6.6,0,0,1-.59-.493l-.975-5.508a.593.593,0,0,0-.164-.317,11.882,11.882,0,0,1-3.077-5.2.6.6,0,0,0-.577-.44H2.392a1.2,1.2,0,0,1-1.2-1.2V18.937a1.2,1.2,0,0,1,1.2-1.2H3.2a.6.6,0,0,0,.556-.379,12.564,12.564,0,0,1,3.987-5.215.6.6,0,0,0,.12-.817l-1.2-1.687A.446.446,0,0,1,6.8,9a6.685,6.685,0,0,1,6.662.158.591.591,0,0,0,.453.073,16.914,16.914,0,0,1,2.07-.351,4.163,4.163,0,0,0,3.907,0c7.421.814,13,6.134,13,12.448A11.432,11.432,0,0,1,29.428,29.364Z" transform="translate(0 -0.992)" fill="#97144d"/>
      <rect id="Rectangle_290" data-name="Rectangle 290" width="1.5" height="10" rx="0.75" transform="translate(17.495 16.533)" fill="#97144d"/>
      <rect id="Rectangle_291" data-name="Rectangle 291" width="1.5" height="10" rx="0.75" transform="translate(23.245 20.783) rotate(90)" fill="#97144d"/>
    </g>
  </g>
</svg>
