<svg xmlns="http://www.w3.org/2000/svg" width="34.172" height="30.486" viewBox="0 0 34.172 30.486">
  <g id="house" transform="translate(0 -25.018)">
    <g id="Group_1364" data-name="Group 1364" transform="translate(0 25.018)">
      <g id="Group_1363" data-name="Group 1363" transform="translate(0 0)">
        <path id="Path_5218" data-name="Path 5218" d="M33.912,39.123l-6.3-5.384c.007-.037.015-.074.022-.118V26.58a.785.785,0,0,0-.759-.773H23.35a.766.766,0,0,0-.737.773V29.5l-5.045-4.3a.737.737,0,0,0-.958,0L.266,39.116a.737.737,0,1,0,.943,1.134l.015-.015L17.089,26.727l5.679,4.839,3.4,2.887,6.8,5.789A.736.736,0,0,0,34,40.162.743.743,0,0,0,33.912,39.123Zm-7.763-6.629-2.062-1.738V27.287h2.062Z" transform="translate(0 -25.018)" fill="#97144d"/>
      </g>
    </g>
    <g id="Group_1366" data-name="Group 1366" transform="translate(3.256 29.246)">
      <g id="Group_1365" data-name="Group 1365">
        <path id="Path_5219" data-name="Path 5219" d="M71.616,93.783l-2.07-1.768L58.52,82.595a.737.737,0,0,0-.958,0L46.536,92.015l-2.07,1.768a.736.736,0,0,0-.081,1.039.717.717,0,0,0,1.016.088l.007-.007.921-.8v13.811a.777.777,0,0,0,.759.759h21.9a.772.772,0,0,0,.759-.759V94.107l.921.8a.732.732,0,0,0,.471.177.745.745,0,0,0,.56-.258A.728.728,0,0,0,71.616,93.783ZM60.988,107.2H55.1V99.241h5.892Zm1.473,0V98.527a.733.733,0,0,0-.707-.759H54.329a.733.733,0,0,0-.707.759V107.2H47.8V92.848l10.238-8.721L68.28,92.848V107.2Z" transform="translate(-44.208 -82.418)" fill="#97144d"/>
      </g>
    </g>
  </g>
</svg>
