<svg xmlns="http://www.w3.org/2000/svg" width="34" height="34" viewBox="0 0 34 34">
  <g id="indian" transform="translate(-0.691 -0.386)">
    <path id="Path_5232" data-name="Path 5232" d="M18.189,7.637A.637.637,0,0,0,17.552,7H8.637a.637.637,0,0,0,0,1.274h3.184a2.55,2.55,0,0,1,2.547,2.547H8.637a.637.637,0,0,0,0,1.274h5.377a2.539,2.539,0,0,1-2.193,1.274H8.637a.638.638,0,0,0-.4,1.135L14.606,19.6a.643.643,0,0,0,.4.139.637.637,0,0,0,.4-1.135l-4.95-3.96h1.368a3.816,3.816,0,0,0,3.586-2.547h2.145a.637.637,0,0,0,0-1.274h-1.91a3.8,3.8,0,0,0-.993-2.547h2.9a.637.637,0,0,0,.637-.637Z" transform="translate(4.691 4.386)" fill="#fff"/>
    <path id="Path_5233" data-name="Path 5233" d="M18,1A17,17,0,1,0,35,18,17.02,17.02,0,0,0,18,1Zm0,32.455A15.455,15.455,0,1,1,33.455,18,15.472,15.472,0,0,1,18,33.455Z" transform="translate(-0.309 -0.614)" fill="#fff"/>
  </g>
</svg>
