<svg xmlns="http://www.w3.org/2000/svg" width="55.62" height="55.621" viewBox="0 0 55.62 55.621">
  <g id="call" transform="translate(-0.006)">
    <g id="Group_1520" data-name="Group 1520" transform="translate(12.937)">
      <g id="Group_1519" data-name="Group 1519">
        <path id="Path_5363" data-name="Path 5363" d="M120.123,0a1.086,1.086,0,1,0,0,2.173,11.29,11.29,0,0,1,11.13,11.419,1.086,1.086,0,0,0,2.173,0A13.465,13.465,0,0,0,120.123,0Z" transform="translate(-119.037)"/>
      </g>
    </g>
    <g id="Group_1522" data-name="Group 1522" transform="translate(12.933 5.154)">
      <g id="Group_1521" data-name="Group 1521">
        <path id="Path_5364" data-name="Path 5364" d="M120.09,47.447a1.086,1.086,0,1,0,0,2.173,6.188,6.188,0,0,1,6.095,6.265,1.086,1.086,0,0,0,2.173,0A8.363,8.363,0,0,0,120.09,47.447Z" transform="translate(-119.004 -47.447)"/>
      </g>
    </g>
    <g id="Group_1524" data-name="Group 1524" transform="translate(12.954 9.903)">
      <g id="Group_1523" data-name="Group 1523">
        <path id="Path_5365" data-name="Path 5365" d="M120.284,91.155a1.086,1.086,0,0,0,0,2.173,1.456,1.456,0,0,1,1.424,1.483,1.086,1.086,0,1,0,2.173,0A3.631,3.631,0,0,0,120.284,91.155Z" transform="translate(-119.198 -91.155)"/>
      </g>
    </g>
    <g id="Group_1526" data-name="Group 1526" transform="translate(29.768 8.611)">
      <g id="Group_1525" data-name="Group 1525">
        <path id="Path_5366" data-name="Path 5366" d="M294.014,79.265h-2.408a1.086,1.086,0,0,0,0,2.173h2.408a3.644,3.644,0,0,1,3.64,3.64V99.826a3.634,3.634,0,0,1-1.384,2.853V99.838a4.607,4.607,0,0,0-3.761-4.527l-.7-.131a4.9,4.9,0,0,0,.242-1.524v-2.5a4.923,4.923,0,1,0-9.846,0v2.5a4.906,4.906,0,0,0,.242,1.524l-.7.131a4.606,4.606,0,0,0-3.761,4.527v3.15a3.641,3.641,0,0,1-1.84-3.162V85.078a3.644,3.644,0,0,1,3.64-3.64h2.589a1.086,1.086,0,1,0,0-2.173h-2.589a5.819,5.819,0,0,0-5.813,5.813V99.826a5.819,5.819,0,0,0,5.813,5.813h5.467v3.124a1.087,1.087,0,0,0,1.852.771l3.919-3.895h2.994a5.819,5.819,0,0,0,5.813-5.813V85.078A5.819,5.819,0,0,0,294.014,79.265ZM284.376,91.16a2.75,2.75,0,1,1,5.5,0v2.5a2.75,2.75,0,1,1-5.5,0Zm9.721,12.3-.082,0h-3.442a1.087,1.087,0,0,0-.766.316l-2.385,2.37v-1.6a1.087,1.087,0,0,0-1.086-1.086h-6.18V99.838a2.433,2.433,0,0,1,1.986-2.391l1.532-.286a4.913,4.913,0,0,0,6.906,0l1.532.286a2.433,2.433,0,0,1,1.986,2.391v3.625Z" transform="translate(-273.969 -79.265)" fill="#97144d"/>
      </g>
    </g>
    <g id="Group_1528" data-name="Group 1528" transform="translate(41.176 8.611)">
      <g id="Group_1527" data-name="Group 1527">
        <path id="Path_5367" data-name="Path 5367" d="M380.834,79.587a1.086,1.086,0,1,0,.318.768A1.09,1.09,0,0,0,380.834,79.587Z" transform="translate(-378.98 -79.269)"/>
      </g>
    </g>
    <g id="Group_1530" data-name="Group 1530" transform="translate(18.343 36.231)">
      <g id="Group_1529" data-name="Group 1529">
        <path id="Path_5368" data-name="Path 5368" d="M170.661,333.825a1.086,1.086,0,1,0,.318.768A1.093,1.093,0,0,0,170.661,333.825Z" transform="translate(-168.806 -333.507)"/>
      </g>
    </g>
    <g id="Group_1532" data-name="Group 1532" transform="translate(0.006 10.695)">
      <g id="Group_1531" data-name="Group 1531" transform="translate(0)">
        <path id="Path_5369" data-name="Path 5369" d="M43.979,134.126,35.655,125.8a3.261,3.261,0,0,0-4.144-.386L26.2,129.049a1.087,1.087,0,0,1-1.381-.129l-1.757-1.757a1.087,1.087,0,0,0-1.537,1.537l1.757,1.757a3.261,3.261,0,0,0,4.144.386l5.312-3.632a1.087,1.087,0,0,1,1.381.129l8.324,8.324a1.088,1.088,0,0,1,0,1.537,13.7,13.7,0,0,1-19.36,0l-16.9-16.9a13.69,13.69,0,0,1,0-19.36,1.087,1.087,0,0,1,1.536,0l8.324,8.324a1.087,1.087,0,0,1,.129,1.381l-3.632,5.312a3.261,3.261,0,0,0,.386,4.144l2.641,2.641A1.087,1.087,0,0,0,17.1,121.2l-2.641-2.641a1.087,1.087,0,0,1-.129-1.381l3.632-5.312a3.261,3.261,0,0,0-.386-4.144L9.254,99.4a3.263,3.263,0,0,0-4.61,0,15.881,15.881,0,0,0,0,22.433l16.9,16.9a15.88,15.88,0,0,0,22.433,0A3.263,3.263,0,0,0,43.979,134.126Z" transform="translate(-0.006 -98.447)"/>
      </g>
    </g>
    <g id="Group_1534" data-name="Group 1534" transform="translate(6.2 19.811)">
      <g id="Group_1533" data-name="Group 1533">
        <path id="Path_5370" data-name="Path 5370" d="M65.468,189.269l-6.586-6.586a1.087,1.087,0,0,0-1.537,1.537l6.586,6.586a1.087,1.087,0,1,0,1.537-1.537Z" transform="translate(-57.027 -182.365)"/>
      </g>
    </g>
    <g id="Group_1536" data-name="Group 1536" transform="translate(31.064 44.674)">
      <g id="Group_1535" data-name="Group 1535">
        <path id="Path_5371" data-name="Path 5371" d="M294.683,418.483l-6.93-6.93a1.087,1.087,0,1,0-1.537,1.537l6.93,6.93a1.087,1.087,0,0,0,1.537-1.537Z" transform="translate(-285.898 -411.235)"/>
      </g>
    </g>
  </g>
</svg>
