<?xml version="1.0" encoding="utf-8"?>
<!-- Generator: Adobe Illustrator 25.2.2, SVG Export Plug-In . SVG Version: 6.00 Build 0)  -->
<svg version="1.1" id="Layer_1" xmlns="http://www.w3.org/2000/svg" xmlns:xlink="http://www.w3.org/1999/xlink" x="0px" y="0px"
	 viewBox="0 0 23 14" style="enable-background:new 0 0 23 14;" xml:space="preserve">
<g id="debit_normal" transform="translate(0.193 0.492)">
	<g id="Rectangle_272">
		<path d="M-0.2-0.5v14h23v-14H-0.2z M15.3,4.5v4c0,0.3,0,0.7-0.2,1c-0.4,1.4-1.8,2.5-3.3,2.5h-1c-1.6,0-2.9-1.1-3.3-2.5
			c-0.1-0.3-0.2-0.7-0.2-1v-4c0-0.3,0-0.7,0.2-1C7.9,2.1,9.2,1,10.8,1h1c1.6,0,2.9,1.1,3.3,2.5C15.3,3.8,15.3,4.2,15.3,4.5z
			 M0.8,0.5h7.9c-1.2,0.6-2,1.7-2.3,3H0.8V0.5z M0.8,4.5h5.5v4H0.8V4.5z M0.8,12.5v-3h5.6c0.3,1.3,1.2,2.4,2.3,3H0.8z M21.8,12.5
			h-7.9c1.2-0.6,2-1.7,2.3-3h5.6V12.5z M21.8,8.5h-5.5v-4h5.5V8.5z M21.8,3.5h-5.6c-0.3-1.3-1.2-2.4-2.3-3h7.9V3.5z"/>
	</g>
</g>
</svg>
