<svg id="forex_cards" xmlns="http://www.w3.org/2000/svg" width="45.77" height="47.655" viewBox="0 0 45.77 47.655">
  <path id="Path_4334" data-name="Path 4334" d="M76.813,265.96a.6.6,0,0,0-1.023.422v2.576c-1.15.04-3.436-.32-5.257-3.348l-.308-.516a.6.6,0,0,0-1.1.2l-.1.593a.612.612,0,0,0-.009.1.442.442,0,0,1,.005-.075,7.571,7.571,0,0,0,2.682,6.849,6.725,6.725,0,0,0,4.094,1.392v2.483a.6.6,0,0,0,1.021.424l5.131-5.105a.6.6,0,0,0,0-.846Zm.174,9.244v-1.629a.6.6,0,0,0-.6-.6h-.078a5.824,5.824,0,0,1-3.8-1.087c-.013-.013-.027-.026-.041-.038a6.354,6.354,0,0,1-2.308-4.661,6.59,6.59,0,0,0,6.327,2.9.6.6,0,0,0,.5-.591v-1.67l3.686,3.7Zm0,0" transform="translate(-62.102 -238.385)"/>
  <path id="Path_4335" data-name="Path 4335" d="M347.38,97.485a.6.6,0,0,0,.653-.13l1.822-1.822c.841.784,2.2,2.656,1.35,6.084l-.147.583a.6.6,0,0,0,.924.636l.493-.346a.592.592,0,0,0,.08-.067.432.432,0,0,1-.057.05,7.572,7.572,0,0,0,2.946-6.74,6.728,6.728,0,0,0-1.911-3.879L355.29,90.1a.6.6,0,0,0-.422-1.022l-7.238-.018h0a.6.6,0,0,0-.6.6l-.018,7.274A.6.6,0,0,0,347.38,97.485Zm.845-7.227,5.2.013-1.152,1.151a.6.6,0,0,0,0,.846l.055.055a5.819,5.819,0,0,1,1.921,3.459q0,.028,0,.056a6.353,6.353,0,0,1-1.663,4.928,6.592,6.592,0,0,0-2.422-6.526.6.6,0,0,0-.774.062l-1.18,1.18Zm0,0" transform="translate(-312.425 -80.174)"/>
  <path id="Path_4336" data-name="Path 4336" d="M31.459,18.318V2.594A2.6,2.6,0,0,0,28.865,0H2.926A2.6,2.6,0,0,0,.332,2.594V18.318a2.6,2.6,0,0,0,2.594,2.594H28.865A2.6,2.6,0,0,0,31.459,18.318Zm-29.93,0V2.594a1.4,1.4,0,0,1,1.4-1.4H28.865a1.4,1.4,0,0,1,1.4,1.4V18.318a1.4,1.4,0,0,1-1.4,1.4H2.926A1.4,1.4,0,0,1,1.529,18.318Zm0,0" transform="translate(-0.332)"/>
  <path id="Path_4337" data-name="Path 4337" d="M177.447,114.351a3.439,3.439,0,0,0-1.432.311,3.463,3.463,0,1,0,0,6.3,3.462,3.462,0,1,0,1.432-6.614Zm-.6,3.463a2.262,2.262,0,0,1-.834,1.754,2.263,2.263,0,0,1,0-3.508A2.263,2.263,0,0,1,176.848,117.814Zm-4.531,0a2.265,2.265,0,0,1,2.5-2.253,3.452,3.452,0,0,0,0,4.506,2.265,2.265,0,0,1-2.5-2.253Zm5.13,2.265a2.314,2.314,0,0,1-.238-.012,3.451,3.451,0,0,0,0-4.506,2.265,2.265,0,1,1,.238,4.518Zm0,0" transform="translate(-154.079 -102.942)" fill="#990d4c"/>
  <path id="Path_4338" data-name="Path 4338" d="M130.065,171.77h-.888a.6.6,0,1,0,0,1.2h.888a.6.6,0,1,0,0-1.2Zm0,0" transform="translate(-115.783 -154.633)"/>
  <path id="Path_4339" data-name="Path 4339" d="M46.307,171.77h-7.17a.6.6,0,0,0,0,1.2h7.17a.6.6,0,0,0,0-1.2Zm0,0" transform="translate(-34.727 -154.633)"/>
  <path id="Path_4340" data-name="Path 4340" d="M75.794,145.934h-6.9a.6.6,0,1,0,0,1.2h6.9a.6.6,0,1,0,0-1.2Zm0,0" transform="translate(-61.513 -131.374)"/>
  <path id="Path_4341" data-name="Path 4341" d="M39.138,147.131h1.155a.6.6,0,1,0,0-1.2H39.138a.6.6,0,1,0,0,1.2Zm0,0" transform="translate(-34.727 -131.374)"/>
  <path id="Path_4342" data-name="Path 4342" d="M22.606,34.453a.6.6,0,0,0-.6.6v1.391a.6.6,0,0,0,1.2,0V35.052A.6.6,0,0,0,22.606,34.453Zm0,0" transform="translate(-19.845 -31.016)"/>
  <path id="Path_4343" data-name="Path 4343" d="M45.97,37.041a.6.6,0,0,0,.6-.6V35.052a.6.6,0,0,0-1.2,0v1.391A.6.6,0,0,0,45.97,37.041Zm0,0" transform="translate(-40.878 -31.016)"/>
  <path id="Path_4344" data-name="Path 4344" d="M69.333,37.041a.6.6,0,0,0,.6-.6V35.052a.6.6,0,0,0-1.2,0v1.391A.6.6,0,0,0,69.333,37.041Zm0,0" transform="translate(-61.91 -31.016)"/>
  <path id="Path_4345" data-name="Path 4345" d="M116.06,37.041a.6.6,0,0,0,.6-.6V35.052a.6.6,0,0,0-1.2,0v1.391A.6.6,0,0,0,116.06,37.041Zm0,0" transform="translate(-103.975 -31.016)"/>
  <path id="Path_4346" data-name="Path 4346" d="M139.423,34.453a.6.6,0,0,0-.6.6v1.391a.6.6,0,0,0,1.2,0V35.052A.6.6,0,0,0,139.423,34.453Zm0,0" transform="translate(-125.007 -31.016)"/>
  <path id="Path_4347" data-name="Path 4347" d="M163.389,36.443V35.052a.6.6,0,0,0-1.2,0v1.391a.6.6,0,0,0,1.2,0Zm0,0" transform="translate(-146.043 -31.016)"/>
  <path id="Path_4348" data-name="Path 4348" d="M209.517,37.041a.6.6,0,0,0,.6-.6V35.052a.6.6,0,0,0-1.2,0v1.391A.6.6,0,0,0,209.517,37.041Zm0,0" transform="translate(-188.108 -31.016)"/>
  <path id="Path_4349" data-name="Path 4349" d="M256.243,37.041a.6.6,0,0,0,.6-.6V35.052a.6.6,0,1,0-1.2,0v1.391A.6.6,0,0,0,256.243,37.041Zm0,0" transform="translate(-230.173 -31.016)"/>
  <path id="Path_4350" data-name="Path 4350" d="M280.205,36.443V35.052a.6.6,0,0,0-1.2,0v1.391a.6.6,0,0,0,1.2,0Zm0,0" transform="translate(-251.205 -31.016)"/>
  <path id="Path_4351" data-name="Path 4351" d="M92.7,37.041a.6.6,0,0,0,.6-.6V35.052a.6.6,0,0,0-1.2,0v1.391A.6.6,0,0,0,92.7,37.041Zm0,0" transform="translate(-82.943 -31.016)"/>
  <path id="Path_4352" data-name="Path 4352" d="M186.153,37.041a.6.6,0,0,0,.6-.6V35.052a.6.6,0,0,0-1.2,0v1.391A.6.6,0,0,0,186.153,37.041Zm0,0" transform="translate(-167.076 -31.016)"/>
  <path id="Path_4353" data-name="Path 4353" d="M232.88,37.041a.6.6,0,0,0,.6-.6V35.052a.6.6,0,0,0-1.2,0v1.391A.6.6,0,0,0,232.88,37.041Zm0,0" transform="translate(-209.14 -31.016)"/>
  <path id="Path_4354" data-name="Path 4354" d="M264.453,274.473A8.547,8.547,0,1,0,273,283.019,8.546,8.546,0,0,0,264.453,274.473Zm0,15.9a7.349,7.349,0,1,1,7.35-7.35A7.349,7.349,0,0,1,264.453,290.368Zm0,0" transform="translate(-230.409 -247.089)"/>
  <path id="Path_4355" data-name="Path 4355" d="M244.1,246.084a.314.314,0,0,0-.088-.088,11.7,11.7,0,0,0-16.486,0,.581.581,0,0,0-.048.039.57.57,0,0,0-.039.048,11.7,11.7,0,0,0,0,16.487.508.508,0,0,0,.039.048.521.521,0,0,0,.048.039,11.7,11.7,0,0,0,16.486,0,.318.318,0,0,0,.087-.087,11.705,11.705,0,0,0,0-16.486Zm1.641,8.841h.54a10.485,10.485,0,0,1-2.659,6.407l-.378-.378a.6.6,0,1,0-.847.846l.378.378a10.484,10.484,0,0,1-6.407,2.659v-.54a.6.6,0,1,0-1.2,0v.54a10.483,10.483,0,0,1-6.407-2.659l.378-.378a.6.6,0,0,0-.846-.846l-.378.378a10.487,10.487,0,0,1-2.659-6.407h.54a.6.6,0,1,0,0-1.2h-.54a10.485,10.485,0,0,1,2.659-6.407l.378.378a.6.6,0,0,0,.847-.846l-.378-.378a10.484,10.484,0,0,1,6.407-2.659v.54a.6.6,0,1,0,1.2,0v-.54a10.485,10.485,0,0,1,6.407,2.659l-.378.378a.6.6,0,0,0,.846.846l.378-.378a10.489,10.489,0,0,1,2.659,6.407h-.54a.6.6,0,1,0,0,1.2Zm0,0" transform="translate(-201.721 -218.398)"/>
  <path id="Path_4356" data-name="Path 4356" d="M315.966,306.29v-.742a.6.6,0,0,0-1.2,0v.669h-.539v-.669a.6.6,0,0,0-1.2,0v.669h-.759a.6.6,0,0,0-.6.6v7.336a.6.6,0,0,0,.6.6h.759v.612a.6.6,0,1,0,1.2,0v-.612h.539v.612a.6.6,0,1,0,1.2,0v-.685a2.248,2.248,0,0,0,1.675-2.17v-.379a2.237,2.237,0,0,0-.72-1.645,2.237,2.237,0,0,0,.72-1.645v-.379A2.247,2.247,0,0,0,315.966,306.29Zm.478,5.838v.379a1.048,1.048,0,0,1-1.046,1.046h-2.526v-2.471H315.4A1.048,1.048,0,0,1,316.444,312.128Zm-3.572-2.243v-2.471H315.4a1.048,1.048,0,0,1,1.046,1.046v.379a1.048,1.048,0,0,1-1.046,1.046Zm0,0" transform="translate(-280.614 -274.526)" fill="#97144d"/>
</svg>
