<svg xmlns="http://www.w3.org/2000/svg" width="38.246" height="39.52" viewBox="0 0 38.246 39.52">
  <g id="internet_mobile" data-name="internet&amp;mobile" transform="translate(-16 -8)">
    <path id="Path_5199" data-name="Path 5199" d="M125.737,464h-5.1a.637.637,0,1,0,0,1.275h5.1a.637.637,0,1,0,0-1.275Z" transform="translate(-95.713 -419.667)"/>
    <path id="Path_5200" data-name="Path 5200" d="M52.015,20.111H38.947v-9.88A2.233,2.233,0,0,0,36.716,8H18.231A2.233,2.233,0,0,0,16,10.231V45.289a2.233,2.233,0,0,0,2.231,2.231H36.716a2.233,2.233,0,0,0,2.231-2.231V36.047H52.015a2.233,2.233,0,0,0,2.231-2.231V22.342a2.233,2.233,0,0,0-2.231-2.231ZM30.482,9.275l-.319,1.275H24.785l-.319-1.275Zm7.191,36.015a.957.957,0,0,1-.956.956H18.231a.957.957,0,0,1-.956-.956V10.231a.957.957,0,0,1,.956-.956h4.92l.517,2.067a.637.637,0,0,0,.618.483h6.374a.637.637,0,0,0,.618-.483L31.8,9.275h4.92a.957.957,0,0,1,.956.956Zm1.275-15.617H40.86v2.55H38.947Zm14.023,4.143a.957.957,0,0,1-.956.956H38.947V33.5H41.5a.637.637,0,0,0,.637-.637V29.035A.637.637,0,0,0,41.5,28.4h-2.55V26.485H52.971Zm0-8.605H38.947V23.936H52.971Zm0-2.55H38.947V21.386H52.015a.957.957,0,0,1,.956.956Z"/>
    <path id="Path_5201" data-name="Path 5201" d="M382.374,264h-5.737a.637.637,0,1,0,0,1.275h5.737a.637.637,0,1,0,0-1.275Z" transform="translate(-331.316 -235.602)" fill="#95184d"/>
    <path id="Path_5202" data-name="Path 5202" d="M382.374,288h-5.737a.637.637,0,1,0,0,1.275h5.737a.637.637,0,1,0,0-1.275Z" transform="translate(-331.316 -257.69)" fill="#95184d"/>
    <path id="Path_5203" data-name="Path 5203" d="M419.187,312h-2.55a.637.637,0,1,0,0,1.275h2.55a.637.637,0,1,0,0-1.275Z" transform="translate(-368.129 -279.778)" fill="#95184d"/>
    <path id="Path_5204" data-name="Path 5204" d="M71.649,160a7.649,7.649,0,1,0,7.649,7.649A7.649,7.649,0,0,0,71.649,160Zm0,14.023a6.374,6.374,0,1,1,6.374-6.374A6.374,6.374,0,0,1,71.649,174.023Z" transform="translate(-44.175 -139.889)" fill="#95184d"/>
    <path id="Path_5205" data-name="Path 5205" d="M119.2,224.186l-4.071,4.071-2.107-1.581a.637.637,0,0,0-.765,1.02l2.55,1.912a.637.637,0,0,0,.833-.059l4.462-4.462a.637.637,0,0,0-.9-.9Z" transform="translate(-88.35 -198.789)" fill="#95184d"/>
  </g>
</svg>
