<svg xmlns="http://www.w3.org/2000/svg" width="39.03" height="38.987" viewBox="0 0 39.03 38.987">
  <g id="send_letter" transform="translate(0 -0.277)">
    <g id="Group_1356" data-name="Group 1356" transform="translate(0 0.277)">
      <g id="Group_1355" data-name="Group 1355" transform="translate(0 0)">
        <path id="Path_5207" data-name="Path 5207" d="M26.641,21.07a.65.65,0,0,0-.65.65V37.314a.65.65,0,0,1-.65.65H1.949a.65.65,0,0,1-.65-.65V2.226a.65.65,0,0,1,.65-.65H25.341a.65.65,0,0,1,.65.65v3.9a.65.65,0,1,0,1.3,0v-3.9A1.949,1.949,0,0,0,25.341.277H1.949A1.949,1.949,0,0,0,0,2.226V37.314a1.949,1.949,0,0,0,1.949,1.949H25.341a1.949,1.949,0,0,0,1.949-1.949V21.72A.65.65,0,0,0,26.641,21.07Z" transform="translate(0 -0.277)"/>
        <path id="Path_5208" data-name="Path 5208" d="M84.54,17.453a3.249,3.249,0,0,0-4.585-.01h0L75.679,21.72,53.308,44.092c-.007.006-.008.014-.014.02a.645.645,0,0,0-.123.183l-.005.011-2.752,6.421a.65.65,0,0,0,.6.906.643.643,0,0,0,.256-.053l6.421-2.752.011-.005a.63.63,0,0,0,.183-.123c.006-.006.014-.008.02-.014l22.371-22.37,4.277-4.278A3.249,3.249,0,0,0,84.54,17.453Zm-32.3,32.3,1.739-4.057L56.3,48.01Zm5.2-2.441-2.757-2.757L76.139,23.1,78.9,25.855ZM79.814,24.936,77.058,22.18l1.061-1.062,2.757,2.757Zm3.819-3.815h0l-1.838,1.838L79.038,20.2l1.838-1.835a1.949,1.949,0,1,1,2.757,2.757Z" transform="translate(-46.462 -15.245)" fill="#97144d"/>
        <path id="Path_5209" data-name="Path 5209" d="M83.392,75.818H67.8a.65.65,0,0,0,0,1.3H83.392a.65.65,0,1,0,0-1.3Z" transform="translate(-61.95 -69.97)"/>
        <path id="Path_5210" data-name="Path 5210" d="M84.042,126.829a.65.65,0,0,0-.65-.65H67.8a.65.65,0,1,0,0,1.3H83.392A.65.65,0,0,0,84.042,126.829Z" transform="translate(-61.95 -116.432)"/>
        <path id="Path_5211" data-name="Path 5211" d="M67.8,176.539a.65.65,0,0,0,0,1.3h11.7a.65.65,0,0,0,0-1.3Z" transform="translate(-61.95 -162.894)"/>
      </g>
    </g>
  </g>
</svg>
