<svg xmlns="http://www.w3.org/2000/svg" width="62.6" height="62.643" viewBox="0 0 62.6 62.643"><g transform="translate(-1.501 0.019)"><g transform="translate(1.501 -0.019)"><g transform="translate(9.179 17.004)"><g transform="translate(0 0)"><path d="M3.5,7.8v.1H2.1A2.182,2.182,0,0,1,0,5.8V2.1A1.981,1.981,0,0,1,1,.3V.4A2.494,2.494,0,0,0,2.7,2.8l.8.3Z" transform="translate(0 -0.3)" fill="#171717"/></g></g><g transform="translate(40.9)"><path d="M46.7,21.1a.645.645,0,0,1-.6-.6h0v-5a1.58,1.58,0,0,0-1.6-1.6,2.8,2.8,0,0,1-2.8-2.8v-8A2.8,2.8,0,0,1,44.5.3H60.6a2.8,2.8,0,0,1,2.8,2.8v8a2.8,2.8,0,0,1-2.8,2.8H52.3a1.561,1.561,0,0,0-1.3.8l-3.7,6.1A.6.6,0,0,1,46.7,21.1ZM46,8.6a1,1,0,0,0-1,1,.945.945,0,0,0,1,1H59.1a1,1,0,0,0,0-2Zm4.7-4.5a1,1,0,0,0,0,2H59a1,1,0,0,0,0-2ZM46,4.1a1,1,0,0,0-1,1,.945.945,0,0,0,1,1h1a1,1,0,1,0,0-2Z" transform="translate(-41.7 -0.3)" fill="#97144d"/></g><g transform="translate(0 12.308)"><g transform="translate(0 0)"><g transform="translate(0 21.436)"><g transform="translate(17.9 0)"><path d="M30.6,9.4H18.7a2.716,2.716,0,0,0,.6-1.7V5.2a14.456,14.456,0,0,0,2.9,1.1,10.679,10.679,0,0,0,2.5.3A11.347,11.347,0,0,0,30,5.2V7.6A2.792,2.792,0,0,0,30.6,9.4Z" transform="translate(-18.7 -5.2)" fill="#171717"/></g><g transform="translate(0 12.4)"><path d="M48.5,27.1v3.2a2.768,2.768,0,0,0-1.3-.3H44.9l.7-12.3A16.854,16.854,0,0,1,48.5,27.1Z" transform="translate(-0.8 -17.6)" fill="#171717"/><path d="M4.4,29.9H2.1a2.768,2.768,0,0,0-1.3.3V27a16.188,16.188,0,0,1,3-9.4Z" transform="translate(-0.8 -17.6)" fill="#171717"/></g><g transform="translate(0 5.6)"><path d="M5.4,11.5a2.127,2.127,0,0,1,1.5-.7H42.1a1.99,1.99,0,0,1,1.6.7,2.36,2.36,0,0,1,.7,1.6l-.2,3h0L43.4,30H27.9a5.889,5.889,0,0,1,1.5-3.4A5.922,5.922,0,0,0,31,21.9a6.687,6.687,0,0,0-2.2-4.5,4.44,4.44,0,0,0-1.1-.8.972.972,0,0,0-.9-.1,1.057,1.057,0,0,0-.7.6,1.421,1.421,0,0,0-.2.6V22a.645.645,0,0,1-.6.6H23.7a.645.645,0,0,1-.6-.6V17.7a1.613,1.613,0,0,0-.3-.9,1.369,1.369,0,0,0-1.5-.2,6.661,6.661,0,0,0-2.5,8.9,8.342,8.342,0,0,0,.8,1.2,5.32,5.32,0,0,1,1.5,3.4H5.8L5,16l-.2-2.9A2.66,2.66,0,0,1,5.4,11.5ZM23.8,23.9h1.6a2.006,2.006,0,0,0,2-2v-4a2.651,2.651,0,0,1,.6.5,5.311,5.311,0,0,1,1.7,3.5,4.966,4.966,0,0,1-1.3,3.7,7.046,7.046,0,0,0-1.9,4.3H22.7a7.046,7.046,0,0,0-1.9-4.3,4.7,4.7,0,0,1-.6-.9,5.179,5.179,0,0,1,1.6-6.8v4A2.006,2.006,0,0,0,23.8,23.9ZM47.2,34.1H2.1A1.324,1.324,0,0,1,.8,32.8a1.284,1.284,0,0,1,.4-1l.1-.1a1.135,1.135,0,0,1,.8-.3H47.2a1.136,1.136,0,0,1,.8.3.1.1,0,0,1,.1.1,1.528,1.528,0,0,1,.4,1A1.256,1.256,0,0,1,47.2,34.1Z" transform="translate(-0.8 -10.8)" fill="#171717"/><path d="M44.4,13l-.2,3h0l-.8,13.9H27.9a5.889,5.889,0,0,1,1.5-3.4A5.922,5.922,0,0,0,31,21.8a6.687,6.687,0,0,0-2.2-4.5,4.44,4.44,0,0,0-1.1-.8.972.972,0,0,0-.9-.1,1.057,1.057,0,0,0-.7.6,1.421,1.421,0,0,0-.2.6v4.3a.645.645,0,0,1-.6.6H23.7a.645.645,0,0,1-.6-.6V17.6a1.613,1.613,0,0,0-.3-.9,1.369,1.369,0,0,0-1.5-.2,6.661,6.661,0,0,0-2.5,8.9,8.342,8.342,0,0,0,.8,1.2A5.32,5.32,0,0,1,21.1,30H5.8L5,16l-.2-2.9a2.271,2.271,0,0,1,.6-1.6,2.127,2.127,0,0,1,1.5-.7H42.1a1.99,1.99,0,0,1,1.6.7A1.8,1.8,0,0,1,44.4,13Z" transform="translate(-0.8 -10.8)" fill="#171717"/></g><g transform="translate(0 26.1)"><path d="M48.6,32.7A1.347,1.347,0,0,1,47.2,34H2.1A1.324,1.324,0,0,1,.8,32.7a1.284,1.284,0,0,1,.4-1l.1-.1a1.135,1.135,0,0,1,.8-.3H47.2a1.136,1.136,0,0,1,.8.3.1.1,0,0,1,.1.1A1.389,1.389,0,0,1,48.6,32.7Z" transform="translate(-0.8 -31.3)" fill="#171717"/></g><g transform="translate(18.848 12.7)"><path d="M29.8,21.9a4.966,4.966,0,0,1-1.3,3.7,7.046,7.046,0,0,0-1.9,4.3H22.8a7.046,7.046,0,0,0-1.9-4.3,4.7,4.7,0,0,1-.6-.9,5.179,5.179,0,0,1,1.6-6.8v4a2.006,2.006,0,0,0,2,2h1.6a2.006,2.006,0,0,0,2-2v-4a2.651,2.651,0,0,1,.6.5A5.1,5.1,0,0,1,29.8,21.9Z" transform="translate(-19.648 -17.9)" fill="#171717"/></g></g><g transform="translate(14.217)"><path d="M22.7,20.8a9.291,9.291,0,0,1-.5,2.9,2.585,2.585,0,0,0-1.9-1.3H17.7a2.774,2.774,0,0,0-2.2,2.2V25a2.69,2.69,0,0,0,2.3,2.7h1.8a4.7,4.7,0,0,1-1.2.9,10.951,10.951,0,0,1-5.3,1.6,16.352,16.352,0,0,1-2.2-.2,12.66,12.66,0,0,1-3.2-1.3,6.42,6.42,0,0,1-1.3-1,9.369,9.369,0,0,1-3.1-6.6V16.9c.2,0,.3.1.4.1h0a1.656,1.656,0,0,0,1.2-.5,1.9,1.9,0,0,0,.5-1.3V11.4A2.737,2.737,0,0,1,8,8.7a5.9,5.9,0,0,1,1.4.2,10.588,10.588,0,0,0,3.1.5h.7a10.588,10.588,0,0,0,3.1-.5,5.019,5.019,0,0,1,1.2-.2h.2a2.606,2.606,0,0,1,2.6,2.7V15a1.793,1.793,0,0,0,1.8,1.8c.2,0,.3,0,.4-.1Z" transform="translate(-3.3 -8.7)" fill="#171717"/></g></g></g><g transform="translate(27.7 16.7)"><path d="M39.3,19.1v7.1a3.9,3.9,0,0,1-3.9,3.9H29.5a.817.817,0,0,1-.9-.8h0a.749.749,0,0,1-.1-.5v-.1a1.285,1.285,0,0,1,1-1h2.3a1.037,1.037,0,0,1,.8.6h2.8a2.006,2.006,0,0,0,2-2V24.9H35.8V20.1l.8-.3a2.591,2.591,0,0,0,1.7-2.4V17A2.5,2.5,0,0,1,39.3,19.1Z" transform="translate(-28.5 -17)" fill="#171717"/></g><g transform="translate(11.6 4.4)"><path d="M36.8,11.3v6.1a1.17,1.17,0,0,1-.8,1.1l-.3.1h0l-.7.3-.7.2-.3.2h-.1a.43.43,0,0,1-.4-.4V15.1a4.166,4.166,0,0,0-4-4.1h-.2a4.529,4.529,0,0,0-1.6.3,8.423,8.423,0,0,1-2.7.4h-.7a12.589,12.589,0,0,1-2.7-.4,5.822,5.822,0,0,0-1.9-.3,4.034,4.034,0,0,0-4,4.1v3.8a.43.43,0,0,1-.4.4h-.1l-.3-.1-.7-.2-.7-.2-.3-.1a1.17,1.17,0,0,1-.8-1.1V12.2a7.555,7.555,0,0,1,7.5-7.5H30a2.476,2.476,0,0,1,2.5,2.5A1.793,1.793,0,0,0,34.3,9h.1A2.286,2.286,0,0,1,36.8,11.3Z" transform="translate(-12.4 -4.7)" fill="#171717"/></g></g></g></svg>