<svg xmlns="http://www.w3.org/2000/svg" width="45.536" height="26.635" viewBox="0 0 45.536 26.635">
  <g id="upi" transform="translate(2664.062 -986)">
    <g id="Group_1338" data-name="Group 1338" transform="translate(-2658.641 994.468)">
      <path id="Path_5195" data-name="Path 5195" d="M49298.758,55724.656h-1.8l2.512-9.656h1.8Zm-15.012-.605a.846.846,0,0,1-.8.648h-9.312a.635.635,0,0,1-.566-.277.794.794,0,0,1-.078-.684l2.27-8.711h1.809l-2.027,7.781h7.227l2.027-7.781h1.809l-2.355,9.023Zm14.074-8.746a.651.651,0,0,0-.578-.277h-9.93l-.488,1.895h9.031l-.527,2.02h-7.223v0h-1.809l-1.5,5.762h1.8l1-3.863h8.121a1.1,1.1,0,0,0,.715-.277,1.282,1.282,0,0,0,.441-.684l1-3.863a.824.824,0,0,0-.07-.707Z" transform="translate(-49272.949 -55715)" fill="#171717" fill-rule="evenodd"/>
      <g id="Group_1337" data-name="Group 1337" transform="translate(28.322 0)">
        <g id="Path_5196" data-name="Path 5196" transform="translate(-256222.469 -55833.004)" fill="none" fill-rule="evenodd">
          <path d="M256226.531,55833l2.313,4.848-4.875,4.848.578-2.2,1.391-5.3Z" stroke="none"/>
          <path d="M 256226.65625 55834.4375 L 256226.421875 55835.32421875 L 256225.03125 55840.62890625 L 256224.921875 55841.046875 L 256228.234375 55837.74609375 L 256226.65625 55834.4375 M 256226.53125 55833.00390625 L 256228.84375 55837.8515625 L 256223.96875 55842.69921875 L 256224.546875 55840.5 L 256225.9375 55835.19921875 L 256226.53125 55833.00390625 Z" stroke="none" fill="#95184d"/>
        </g>
        <path id="Path_5197" data-name="Path 5197" d="M244712.563,55833l2.328,4.848-4.891,4.848Z" transform="translate(-244710 -55833.004)" fill="#95184d" fill-rule="evenodd"/>
      </g>
    </g>
    <path id="Path_5198" data-name="Path 5198" d="M6.285,0H43.251a4.317,4.317,0,0,1,3.027,1.233A4.144,4.144,0,0,1,47.536,4.2V22.436A4.144,4.144,0,0,1,46.278,25.4a4.317,4.317,0,0,1-3.027,1.233H6.285A4.317,4.317,0,0,1,3.258,25.4,4.143,4.143,0,0,1,2,22.436V4.2A4.144,4.144,0,0,1,3.258,1.232,4.317,4.317,0,0,1,6.285,0ZM43.251,1.447H6.285A2.828,2.828,0,0,0,4.3,2.255,2.715,2.715,0,0,0,3.476,4.2V22.437A2.715,2.715,0,0,0,4.3,24.379a2.828,2.828,0,0,0,1.983.809H43.251a2.828,2.828,0,0,0,1.982-.809,2.716,2.716,0,0,0,.826-1.942V4.2a2.716,2.716,0,0,0-.826-1.942,2.829,2.829,0,0,0-1.983-.809Z" transform="translate(-2666.062 986)" fill="#171717"/>
  </g>
</svg>
